<?xml version="1.0" encoding="UTF-8"?>
<svg id="Calque_2" data-name="Calque 2" xmlns="http://www.w3.org/2000/svg" viewBox="0 0 25.97 20.51">
  <defs>
    <style>
      .cls-1 {
        fill: #6b0300;
      }

      .cls-2 {
        fill: #62b2b2;
      }
    </style>
  </defs>
  <g id="Calque_1-2" data-name="Calque 1">
    <path class="cls-2" d="M25.97,8.78c-4.85,0-8.78-3.93-8.78-8.78,0,4.85-3.93,8.78-8.78,8.78,4.85,0,8.78,3.93,8.78,8.78,0-4.85,3.93-8.78,8.78-8.78Z"/>
    <path class="cls-1" d="M18.36,16.47V6.34h-3.16v-1.76h5.04v12.01c0,1.5.72,2.1,1.74,2.1.5,0,1.04-.14,1.65-.45l.45,1.63c-.88.41-1.5.63-2.54.63-2.06,0-3.18-1.44-3.18-4.04Z"/>
    <path class="cls-1" d="M10.88,19.6c-.32-.47-.36-1.02-.26-1.6-.11,0-.19.06-.26.16-.79,1.22-2.58,1.99-4,2.2-1.19.18-2.36.15-3.52-.12-.77-.18-1.46-.51-2.01-1.04-1.15-1.12-1.11-2.93.1-3.97,1.45-1.25,3.78-1.49,5.66-1.68l3.32-.33c.23-.02.51-.22.58-.42.17-.45.02-.93-.27-1.3-.35-.45-.84-.74-1.39-.91-1.5-.48-3.11-.44-4.61.03-1.18.37-2.24,1.03-2.81,2.1l-1.19-.83c.26-.61.66-1.1,1.2-1.48.83-.59,1.75-1.03,2.74-1.32,3.17-.91,8.03.04,8.01,3.71,0,1.01-.73,1.76-1.73,1.84l-3.78.3c-1.39.11-3.52.35-4.54,1.19-.54.45-.7,1.18-.3,1.77.65.95,2.2,1.11,3.34,1.11s2.31-.25,3.36-.8c.29-.15.54-.32.78-.52l1.28-1.12h1.59s.01,1.87.01,1.87c0,.56.55.94,1.07.8.41-.11.72-.34.99-.67l.81.74c-.32.51-.75.8-1.28,1-1.08.34-2.22.22-2.87-.74Z"/>
  </g>
</svg>