<?xml version="1.0" encoding="UTF-8"?>
<svg id="Calque_2" data-name="Calque 2" xmlns="http://www.w3.org/2000/svg" viewBox="0 0 373.01 46.47">
  <defs>
    <style>
      .cls-1 {
        fill: #b75f30;
      }

      .cls-2 {
        fill: #ca9f88;
      }

      .cls-3 {
        fill: #eee8e0;
      }

      .cls-4 {
        fill: #a06d40;
      }
    </style>
  </defs>
  <g id="Calque_1-2" data-name="Calque 1">
    <g>
      <circle class="cls-4" cx="219.2" cy="23.08" r="23.04"/>
      <circle class="cls-2" cx="153.81" cy="23.04" r="23.04"/>
      <circle class="cls-1" cx="88.43" cy="23.42" r="23.04"/>
      <circle class="cls-4" cx="23.04" cy="23.43" r="23.04"/>
      <circle class="cls-2" cx="349.97" cy="23.23" r="23.04"/>
      <circle class="cls-1" cx="284.58" cy="23.23" r="23.04"/>
      <path class="cls-2" d="M290.83,11.6c-7.33,7.52-.38,6.23,4.65,9.85.79.57,3.25,2.8,3.57,3.5,2.3,4.98-4.86,9.81-9.35,10.22-2.07.19-13.82.15-14.53-.84h0c-6.69-.76-8.09-6.72-4.65-10.92h0c2.14-1.39,1.69-1.88,3.62-2.25l1.19-.53.67-.34,5.34-2.51c1-2.95-1.83-4.09-3.03-6.18h12.53Z"/>
      <path class="cls-3" d="M214.37,12.63v9.99c0,.37,1.51,1.42,2.06,1.03l.73-4.09,4.1-.04v4.14s2.06,0,2.06,0l.69-11.03,4.86.3c1.42,4.49.74,17.18-3.92,19.59-2.88,1.49-11.01,1.48-13.33-1.13-.57-.64-2.75-4.78-2.75-5.32v-13.43h5.5Z"/>
      <path class="cls-1" d="M347.18,13.48c.22,4.47-1.21,9.97,2.74,13.32,3.83-3.27,3.57-8.76,2.74-13.31,2.03.34,7.74-1.05,8.51,1.28.08,5.49,1.2,10.13-2.25,14.78-4.18,5.64-15.75,5.21-18.96-1.4-2.18-4.5-1.4-9.91-.58-14.63l7.8-.05Z"/>
      <path class="cls-4" d="M159.38,9.32c-1.92,4.29-4.26,9.25-1.26,13.67,1.1,1.63,3.77,1.98,4.48,4.95.62,2.58.12,8-2.74,9.2-1.08.45-10.93.55-11.89.15-3.7-1.53-4.26-9.87-1.15-12.34,1.29-1.02,3.78-.67,4.07-1.65.72-5.06.02-9.52-2.6-13.97h11.1Z"/>
      <path class="cls-2" d="M92.27,37.43l-2.74.76h-2.2l-2.74-.76c-4.2-1.78-5.22-6.47-.96-8.86l-1.3-.83c-3.05-2.39-.73-4.8,1.99-5.84-3.1-2.11-2.35-4.99.87-6.41.35-.15,1.51-.39,1.59-.61l-.26-6.92h3.84l-.26,6.92c.08.23,1.53.54,1.9.7,3.02,1.36,3.55,4.6.55,6.32,3.88,1.36,4.82,4.76.69,6.6,4.22,2.49,3.31,7.12-.96,8.93Z"/>
      <path class="cls-3" d="M25.96,8.47l-.7,5.88c1.86.87,3.23,2.43,3.47,4.52v19.52s-11.36,0-11.36,0v-19.31c0-.15.34-1.1.42-1.32.55-1.35,1.69-2.6,3.06-3.15-.15-1.83-.62-3.77-.72-5.58-.01-.21-.04-.43.16-.56h5.68Z"/>
    </g>
  </g>
</svg>