<?xml version="1.0" encoding="UTF-8"?>
<svg id="Calque_2" data-name="Calque 2" xmlns="http://www.w3.org/2000/svg" viewBox="0 0 183.63 108.44">
  <defs>
    <style>
      .cls-1 {
        fill: #fff;
      }

      .cls-2 {
        fill: #eee8e0;
      }

      .cls-3 {
        fill: #a06d40;
      }
    </style>
  </defs>
  <g id="Calque_1-2" data-name="Calque 1">
    <circle class="cls-3" cx="91.65" cy="32.45" r="32.45"/>
    <path class="cls-2" d="M110.2,38.26c0,10.25-8.31,18.55-18.55,18.55s-18.55-8.31-18.55-18.55"/>
    <path class="cls-2" d="M106.12,25.21c0,8-6.48,14.48-14.48,14.48s-14.48-6.48-14.48-14.48"/>
    <path class="cls-2" d="M102.26,18.21c-2.12,5.67-8.43,8.55-14.1,6.44s-8.55-8.43-6.44-14.1"/>
    <g>
      <path class="cls-1" d="M20.38,88.93c0,4.39-3.74,7.01-10.01,7.01h-4.5v8.57c0,1.42.25,2.32.8,2.86.37.35.84.5,1.44.5h.13v.26H0v-.26h.06c.65,0,1.16-.15,1.52-.5.54-.53.79-1.43.79-2.85v-18.58c0-1.42-.25-2.32-.79-2.85-.36-.35-.83-.5-1.45-.5h-.13v-.26h11.37c3.3,0,5.84.8,7.36,2.33,1.09,1.09,1.64,2.53,1.64,4.27ZM16.66,88.93c0-1.93-.46-3.43-1.36-4.46-.91-1.04-2.23-1.57-3.92-1.57h-5.51v12.48h4.5c1.91,0,3.49-.58,4.58-1.67,1.12-1.12,1.71-2.77,1.71-4.78Z"/>
      <path class="cls-1" d="M47.91,95.08c0,3.82-1.27,7.04-3.78,9.56-2.51,2.52-5.59,3.8-9.15,3.8s-6.67-1.25-9.12-3.71c-2.45-2.46-3.7-5.69-3.7-9.6s1.44-7.3,4.27-9.82c2.46-2.19,5.44-3.3,8.87-3.3s6.38,1.26,8.86,3.73c2.49,2.47,3.75,5.61,3.75,9.33ZM44.08,95.57c0-4.53-.95-7.98-2.83-10.25-1.52-1.81-3.65-2.73-6.33-2.73-2.53,0-4.58.92-6.11,2.73-1.87,2.21-2.82,5.47-2.82,9.71s.98,7.74,2.92,10.08c1.51,1.83,3.54,2.76,6.03,2.76,2.63,0,4.85-1.01,6.57-3,1.71-1.97,2.57-5.1,2.57-9.3Z"/>
      <path class="cls-1" d="M49.28,107.86h.12c.61,0,1.09-.15,1.46-.5.54-.53.79-1.44.79-2.85v-18.59c0-1.41-.25-2.32-.8-2.84-.36-.35-.84-.5-1.45-.5h-.13v-.26h17.4v4.21h-.26c-1.04-2.56-2.97-3.65-6.45-3.65h-4.82v10.93h3.72c2.88,0,4.3-.61,5.06-2.19l.08-.17h.26v5.61h-.25l-.09-.2c-.76-1.78-2.18-2.48-5.07-2.48h-3.72v13.16h5.62c3.15,0,4.95-.93,6.03-3.12,0-.02.26-.59.44-.99h.26v4.68h-18.22v-.26Z"/>
      <path class="cls-1" d="M82.67,82.89v21.62c0,1.43.25,2.33.79,2.85.36.35.82.5,1.45.5h.12v.26h-8.23v-.26h.09c.64,0,1.12-.15,1.48-.49.55-.53.8-1.44.8-2.85v-21.62h-3.47c-3.3,0-5.17,1.15-6.27,3.84l-.19.45h-.26v-4.84h23.86v4.85h-.26l-.19-.44c-1.09-2.7-2.97-3.85-6.27-3.85h-3.46Z"/>
      <path class="cls-1" d="M107.04,82.89v21.62c0,1.43.25,2.33.79,2.85.36.35.82.5,1.45.5h.12v.26h-8.23v-.26h.09c.64,0,1.12-.15,1.48-.49.55-.53.8-1.44.8-2.85v-21.62h-3.47c-3.29,0-5.17,1.15-6.27,3.84l-.19.45h-.26v-4.84h23.86v4.85h-.26l-.19-.44c-1.09-2.7-2.97-3.85-6.27-3.85h-3.46Z"/>
      <path class="cls-1" d="M118.26,107.86h.12c.61,0,1.09-.15,1.46-.5.54-.53.79-1.44.79-2.85v-18.59c0-1.41-.25-2.32-.8-2.84-.36-.35-.84-.5-1.45-.5h-.13v-.26h17.4v4.21h-.26c-1.04-2.56-2.97-3.65-6.45-3.65h-4.82v10.93h3.72c2.88,0,4.3-.61,5.06-2.19l.08-.17h.26v5.61h-.25l-.09-.2c-.76-1.78-2.18-2.48-5.07-2.48h-3.72v13.16h5.62c3.15,0,4.95-.93,6.03-3.12,0-.02.26-.59.44-.99h.26v4.68h-18.22v-.26Z"/>
      <path class="cls-1" d="M144.37,95.94v8.57c0,1.41.25,2.32.79,2.85.35.35.83.49,1.45.49h.13v.26h-8.24v-.26c.67.02,1.19-.13,1.57-.49.54-.52.79-1.43.79-2.85v-18.58c0-1.42-.25-2.33-.79-2.85-.37-.35-.84-.5-1.44-.5h-.13v-.26h11.36c5.73,0,9.01,2.41,9.01,6.6,0,3.83-2.87,6.34-7.88,6.89l-.94.1.8.5c.08.05.15.09.22.14l.13.08c.11.08.21.14.27.17.94.57,1.8,1.32,2.61,2.3.21.24.39.47.57.72l.52.72.7.98c.78,1.11,1.66,2.36,2.62,3.5l.07.09c.77.92,2.07,2.46,3.71,2.75v.25c-.45,0-1.84,0-2.47,0h-.59c-3.71,0-4.91-2.43-6.58-5.78l-.03-.07c-.45-.91-.81-1.62-1.22-2.37-.6-1.11-1.35-2.05-2.23-2.79-.36-.32-.77-.61-1.22-.86l-.16-.1c-.07-.04-.15-.09-.25-.15l-.08-.06h-3.08ZM144.37,95.38h4.5c3.94,0,6.3-2.41,6.3-6.44,0-1.93-.46-3.43-1.37-4.47-.91-1.04-2.23-1.57-3.93-1.57h-5.5v12.47Z"/>
      <path class="cls-1" d="M179.77,85.7l-6.34,10.21-.02.03v8.59c.04,1.43.3,2.33.84,2.84.36.34.83.49,1.44.49h.13v.26h-8.15v-.26h.13c.61,0,1.09-.15,1.44-.5.54-.53.8-1.44.8-2.84v-6.94l-6.55-11.78c-.21-.38-.42-.73-.62-1.03-1-1.53-1.83-2.17-2.78-2.18v-.26s8.17,0,8.17,0v.26h-.13c-.6,0-1,.14-1.23.49-.31.48-.21,1.21.32,2.35l5.61,10.25,5.55-8.84c1.3-2.04,1.67-3.08,1.32-3.71-.21-.37-.66-.54-1.38-.54h-.21v-.26h5.52v.26h-.02c-1.27,0-2.38.89-3.84,3.12Z"/>
    </g>
  </g>
</svg>