<?xml version="1.0" encoding="UTF-8"?>
<svg id="Calque_2" data-name="Calque 2" xmlns="http://www.w3.org/2000/svg" xmlns:xlink="http://www.w3.org/1999/xlink" viewBox="0 0 192.78 282.53">
  <defs>
    <style>
      .cls-1, .cls-2 {
        fill: #b75f30;
      }

      .cls-2 {
        stroke: #eee8e0;
        stroke-miterlimit: 10;
      }

      .cls-3 {
        clip-path: url(#clippath);
      }
    </style>
    <clipPath id="clippath">
      <rect class="cls-1" x="8.32" y="10.56" width="168.25" height="240.38" rx="15.65" ry="15.65"/>
    </clipPath>
  </defs>
  <g id="Calque_1-2" data-name="Calque 1">
    <g>
      <rect class="cls-1" x="8.32" y="10.56" width="168.25" height="240.38" rx="15.65" ry="15.65"/>
      <g class="cls-3">
        <path class="cls-2" d="M169.78,52.98c-22.11,15.16-26.19,26.54-25.68,34.23.56,8.32,6.67,15.07,3.8,18.07-2.48,2.59-10.06.69-14.26-3.8-3.8-4.05-4.88-10.26-2.85-16.17"/>
        <path class="cls-2" d="M81.75,144.97c-11.36,33.78-10.3,43.56-6.66,45.65,7.13,4.09,26.76-19.79,33.28-15.22,5.41,3.79-3.31,23.59.95,25.68,3.99,1.95,13.2-14.61,20.92-12.36,5.16,1.5,4.83,10,11.41,12.36,4,1.44,8.31-.21,11.41-1.9"/>
        <path class="cls-2" d="M38.33,97.75c-1.7,15.53,7.22,27.51,16.17,28.53,10.19,1.16,20.69-11.86,20.92-22.82.25-11.97-11.89-15.27-11.41-26.63.58-13.78,19.15-26.21,25.68-22.82,4.85,2.52,1.02,12.75,7.61,17.12,4.57,3.03,12.08,1.87,15.22-1.9,4.17-5.02,2.17-16.57-8.56-24.73"/>
        <path class="cls-2" d="M40.24,151.31c1.63,10.97,5.5,20.28,10.46,20.92,4.74.61,5.56-13.14,18.07-28.53,4.12-5.07,13.89-17.1,22.82-15.22,6.44,1.36,6.57,8.71,12.36,9.51,9.22,1.27,13.53-16.67,24.73-17.12,9.16-.36,12.17,11.42,22.82,12.36,8.33.73,15.79-5.65,20.92-11.41"/>
        <path class="cls-2" d="M95.39,162.09c4.29-6.94,10.58-15,17.12-14.26,6.1.69,9.34,8.71,12.36,7.61,4.17-1.53-.53-17.41,4.75-19.97,2.78-1.35,7.83,1.22,9.51,4.75,2.16,4.55-2.12,8.94,0,11.41,2.49,2.9,9.43-1.9,12.36.95,2.81,2.73,1.07,11.64-3.8,14.26-4.97,2.68-9.29-3.29-16.17-.95-6.03,2.05-6.83,8.02-10.46,7.61-4.01-.45-4-7.83-9.51-11.41-4.84-3.14-11.37-1.72-16.17,0Z"/>
        <path class="cls-2" d="M98.25,89.82c8.68,5.85,23.55-3.32,24.73-.95,1,2-10.46,6.88-10.46,14.26,0,6.41,8.64,10.58,7.61,12.36-1.33,2.3-14.46-6.79-23.77-1.9-5.78,3.03-7.31,9.99-8.56,9.51-1.8-.69,5.66-13.51.95-24.73-3.7-8.82-12.46-10.74-11.41-15.22.81-3.47,6.98-6.15,11.41-4.75,5.27,1.66,4.31,7.91,9.51,11.41Z"/>
        <path class="cls-2" d="M35.15,58.55c-10.34,6.19-21.7-1.49-26.59,5.02-3.19,4.24-1.94,12.26,1.85,14.65,4.86,3.06,10.62-5.21,19.61-3.09,7.4,1.74,7.94,8.38,14.18,8.65,5.85.25,12.63-5.28,14.04-11.53,1.58-7.01-4.79-9.62-7.55-22.14-2.28-10.34-.05-18.18-1.34-18.42-2.01-.37-2.08,19.6-14.21,26.86Z"/>
        <path class="cls-2" d="M12.66,46.07c21.15-6.29,28.44-14.54,30.43-21.87,2.73-10.05-4.15-19.62,0-22.82,3.53-2.73,12.24,1.34,17.12,6.66,10.69,11.63,4.39,30.64,3.8,32.33"/>
        <path class="cls-2" d="M108.91,33.1c23.06-7.91,41.86-4.4,44.7,2.85,2.74,7.02-7.97,21.34-27.58,31.38"/>
        <path class="cls-2" d="M18.17,94.4c6.94,4.29,15,10.58,14.26,17.12-.69,6.1-8.71,9.34-7.61,12.36,1.53,4.17,17.41-.53,19.97,4.75,1.35,2.78-1.22,7.83-4.75,9.51-4.55,2.16-8.94-2.12-11.41,0-2.9,2.49,1.9,9.43-.95,12.36-2.73,2.81-11.64,1.07-14.26-3.8-2.68-4.97,3.29-9.29.95-16.17-2.05-6.03-8.02-6.83-7.61-10.46.45-4.01,7.83-4,11.41-9.51,3.14-4.84,1.72-11.37,0-16.17Z"/>
        <path class="cls-2" d="M136.64,20.65c-25.58-8.03-37.05-4.21-42.78.94-6.2,5.57-7.74,14.56-11.86,14.15-3.57-.35-6.75-7.48-5.81-13.57.85-5.49,5.05-10.17,10.96-12.23"/>
        <path class="cls-2" d="M43.28,181.24c8.68,5.85,23.55-3.32,24.73-.95,1,2-10.46,6.88-10.46,14.26,0,6.41,8.64,10.58,7.61,12.36-1.33,2.3-14.46-6.79-23.77-1.9-5.78,3.03-7.31,9.99-8.56,9.51-1.8-.69,5.66-13.51.95-24.73-3.7-8.82-12.46-10.74-11.41-15.22.81-3.47,6.98-6.15,11.41-4.75,5.27,1.66,4.31,7.91,9.51,11.41Z"/>
        <path class="cls-2" d="M7.17,253.43c-1.7,15.53,7.22,27.51,16.17,28.53,10.19,1.16,20.69-11.86,20.92-22.82.25-11.97-11.89-15.27-11.41-26.63.58-13.78,19.15-26.21,25.68-22.82,4.85,2.52,1.02,12.75,7.61,17.12,4.57,3.03,12.08,1.87,15.22-1.9,4.17-5.02,2.17-16.57-8.56-24.73"/>
        <path class="cls-2" d="M112.35,211.13c-10.53-5.86-9.55-19.54-17.64-20.52-5.27-.64-11.59,4.45-11.76,8.92-.22,5.74,9.82,6.6,12.48,15.44,2.19,7.28-3.29,11.07-.4,16.6,2.71,5.19,10.89,8.3,17,6.4,6.86-2.13,5.94-8.96,15.4-17.6,7.82-7.14,15.72-9.12,15.28-10.36-.68-1.93-18.02,7.99-30.37,1.12Z"/>
        <path class="cls-2" d="M161.25,101.87c-3.9,7.33-13.35,6.84-13.92,12.43-.37,3.64,3.22,7.93,6.3,8,3.96.08,4.42-6.86,10.49-8.81,4.99-1.6,7.67,2.12,11.45.06,3.54-1.93,5.58-7.61,4.19-11.81-1.56-4.7-6.25-3.98-12.34-10.39-5.02-5.3-6.49-10.72-7.34-10.4-1.32.49,5.74,12.32,1.16,20.92Z"/>
        <path class="cls-2" d="M159,8.98c-7.69-1.37-13.97,2.71-14.78,7.18-.92,5.09,5.22,10.81,10.68,11.29,5.97.53,8.02-5.47,13.67-4.85,6.86.75,12.43,10.51,10.52,13.68-1.42,2.36-6.4.09-8.8,3.26-1.66,2.2-1.34,6.02.44,7.72,2.36,2.26,8.2,1.64,12.62-3.48"/>
        <path class="cls-2" d="M148.84,217.48c7.72,13.59,21.96,18.07,29.81,13.66,8.94-5.02,9.83-21.73,3.6-30.75-6.81-9.85-18.58-5.42-24.84-14.9-7.6-11.51.18-32.46,7.45-33.54,5.41-.8,8.3,9.74,16.19,9.42,5.47-.22,10.89-5.56,11.22-10.45.44-6.51-7.95-14.7-21.42-15.03"/>
        <path class="cls-2" d="M102.92,269.05c21.15-6.29,28.44-14.54,30.43-21.87,2.73-10.05-4.15-19.62,0-22.82,3.53-2.73,12.24,1.34,17.12,6.66,10.69,11.63,4.39,30.64,3.8,32.33"/>
        <path class="cls-2" d="M110.87,255.05c-22.54-14.51-34.61-13.87-41.51-10.42-7.45,3.73-11.31,11.99-15.19,10.5-3.34-1.28-4.53-9-2.02-14.62,2.27-5.07,7.57-8.47,13.8-8.89"/>
        <path class="cls-2" d="M16.4,243.54c6.68-24.08,2.74-35.17-2.27-40.84-5.42-6.13-13.87-7.95-13.63-11.87.21-3.39,6.78-6.15,12.51-5.01,5.16,1.02,9.69,5.22,11.8,10.93"/>
      </g>
    </g>
  </g>
</svg>