<?xml version="1.0" encoding="UTF-8"?>
<svg id="Calque_2" data-name="Calque 2" xmlns="http://www.w3.org/2000/svg" viewBox="0 0 164.41 88.4">
  <defs>
    <style>
      .cls-1 {
        fill: #fff;
      }
    </style>
  </defs>
  <g id="Calque_1-2" data-name="Calque 1">
    <g>
      <path class="cls-1" d="M22.46,7.33c0,4.87-4.13,7.78-11.04,7.78h-4.74v9.17c0,1.5.26,2.45.82,2.99.37.35.85.52,1.47.52h.29v.56H0v-.56h.2c.63,0,1.17-.15,1.57-.52.55-.54.81-1.49.81-2.99V4.07c0-1.5-.26-2.44-.81-2.99-.36-.35-.84-.52-1.47-.52h-.3v-.57h12.52c6.32,0,9.95,2.67,9.94,7.33ZM18.11,7.33c0-4.13-1.99-6.4-5.6-6.4h-5.83v13.26h4.74c4.19,0,6.7-2.56,6.69-6.86Z"/>
      <path class="cls-1" d="M44,28.34h-10.94s-9.24,0-9.24,0v-.56h.2c.69,0,1.19-.17,1.56-.52.55-.54.81-1.49.81-2.99V4.07c0-1.5-.26-2.44-.81-2.99-.36-.35-.84-.52-1.47-.52h-.29v-.56h9.24v.56h-.31c-.59,0-1.09.18-1.44.52-.55.54-.81,1.49-.81,2.99v23.34h6.07c3.62,0,5.55-1.12,6.67-3.89l.26-.58h.51v5.4Z"/>
      <path class="cls-1" d="M74.54,28.35h-10.37v-.56s.72,0,.87-.02c.55-.07.95-.27,1.19-.6.36-.51.33-1.29-.08-2.43l-3.02-7.19h-10.18l-2.32,6.37c-.5,1.53-.52,2.54-.06,3.16.35.49.97.7,1.89.7h.3v.56h-7.37v-.56h.25c1.54,0,2.65-1.02,3.56-3.32L58.27,0h1.68l.04.09,10.6,24.4c.87,1.87,1.79,2.85,2.99,3.17.07.02.15.04.24.05.16.02.71.07.71.07v.56ZM62.74,16.62l-5.07-12.05-4.37,12.05h9.45Z"/>
      <path class="cls-1" d="M101.97,0v.57h-.29c-.63,0-1.12.15-1.48.5-.52.49-.77,1.72-.79,2.99v24.29h-1.56l-1.68-2.39L79.43,3.13v21.15c0,1.5.26,2.41.82,2.95.36.35.84.54,1.47.54h.29v.56h-6.26v-.56h.16c.71,0,1.21-.16,1.6-.52.55-.54.81-1.5.81-2.99V4.07c0-1.49-.25-2.44-.81-2.99-.37-.35-.85-.52-1.47-.52h-.29v-.56h6.24l.04.06,16.25,22.29V4.06c-.01-1.5-.28-2.43-.83-2.98-.36-.36-.84-.52-1.47-.52h-.29v-.56h6.27Z"/>
      <path class="cls-1" d="M142.9,14.17c0,9.01-5.01,14.17-13.73,14.17h-12.23v-.56h.3c.61,0,1.09-.17,1.45-.52.55-.54.81-1.49.81-2.99V4.07c0-1.5-.26-2.45-.81-2.98-.36-.35-.84-.52-1.47-.52h-.29v-.57h10.66c9.72,0,15.3,5.16,15.3,14.17ZM138.77,14.17c0-8.42-4.07-13.25-11.17-13.25h-3.98v26.51h5.54c6.1,0,9.61-4.83,9.61-13.26Z"/>
      <path class="cls-1" d="M164.41,28.35h-20.14v-.56h.28c.62,0,1.11-.17,1.48-.52.55-.55.81-1.5.81-2.99V4.07c0-1.49-.26-2.44-.82-2.98-.36-.35-.84-.52-1.47-.52h-.29v-.57h19.26v4.89h-.57l-.04-.1c-1.11-2.71-3.16-3.87-6.87-3.87h-5.09v11.58h3.9c3.07,0,4.57-.64,5.37-2.3l.13-.28h.57v6.41h-.57l-.13-.31c-.8-1.87-2.3-2.6-5.37-2.6h-3.9v14h5.96c3.35,0,5.26-.97,6.41-3.31.01-.02.52-1.16.52-1.16h.57v5.4Z"/>
      <path class="cls-1" d="M48.8,23.45c0,.89-.35,2.19-1.05,3.9-.7,1.71-1.7,3.7-3,5.95-1.3,2.25-2.89,4.67-4.76,7.24-1.87,2.57-4,5.13-6.38,7.67s-5,4.97-7.86,7.28c-2.86,2.32-5.91,4.37-9.14,6.14-.57,1.02-1.37,2.38-2.38,4.09-1.02,1.71-2.02,3.52-3,5.43-.99,1.9-1.85,3.78-2.57,5.62s-1.09,3.4-1.09,4.67c0,2.03.92,3.05,2.76,3.05,1.59,0,3.24-.44,4.96-1.33,1.71-.89,3.35-1.97,4.9-3.24,1.56-1.27,3.01-2.62,4.38-4.05,1.36-1.43,2.52-2.71,3.47-3.86.44-.44.7-.56.76-.33.06.22-.03.46-.29.71-1.14,1.4-2.49,2.89-4.05,4.48s-3.21,3.05-4.95,4.38c-1.75,1.33-3.57,2.44-5.48,3.33s-3.81,1.33-5.71,1.33c-1.65,0-2.84-.4-3.57-1.19-.73-.79-1.1-1.76-1.1-2.91s.49-2.78,1.48-4.91c.99-2.13,2.14-4.36,3.48-6.71,1.33-2.35,2.66-4.57,4-6.67,1.33-2.1,2.32-3.68,2.95-4.76,1.08-1.84,2.21-3.76,3.38-5.76s2.33-3.95,3.48-5.86c1.14-1.9,2.24-3.73,3.28-5.48,1.05-1.74,2.01-3.28,2.91-4.62,1.08-1.65,2.19-3.2,3.33-4.67,1.14-1.46,2.6-2.92,4.38-4.38,2.41-2.03,4.64-3.59,6.67-4.67,2.03-1.08,3.4-1.62,4.1-1.62.51,0,.92.14,1.24.43.32.29.48.71.48,1.29ZM44.51,25.93c0-1.02-.41-1.52-1.24-1.52-.32,0-.67.09-1.05.28-.38.19-.87.59-1.47,1.19-.61.6-1.34,1.45-2.19,2.52-.86,1.08-1.95,2.48-3.28,4.19-.51.7-1.22,1.71-2.14,3.05-.92,1.33-2.1,3.1-3.53,5.29-1.43,2.19-3.14,4.89-5.14,8.1-2,3.21-4.37,7-7.09,11.38,3.81-2.16,7.38-4.78,10.71-7.86,3.33-3.08,6.21-6.24,8.62-9.48,2.41-3.24,4.32-6.38,5.71-9.43,1.4-3.05,2.09-5.62,2.09-7.71Z"/>
      <path class="cls-1" d="M46.99,74.21c-1.08,1.33-2.37,2.71-3.86,4.14s-3.11,2.73-4.86,3.91-3.56,2.13-5.43,2.86c-1.87.73-3.73,1.09-5.57,1.09-2.98,0-4.48-1.33-4.48-4,0-1.78.46-3.7,1.38-5.76.92-2.06,2.11-3.97,3.57-5.71,1.46-1.74,3.07-3.2,4.81-4.38,1.74-1.17,3.41-1.76,5-1.76.89,0,1.51.16,1.86.48.35.32.52.73.52,1.24,0,.76-.24,1.59-.71,2.48s-1.19,1.73-2.14,2.52-2.16,1.46-3.62,2c-1.46.54-3.21.81-5.24.81-.32.57-.67,1.48-1.05,2.71-.38,1.24-.57,2.49-.57,3.76,0,2.6,1.18,3.9,3.52,3.9,1.46,0,2.97-.35,4.52-1.05s3.07-1.57,4.52-2.62c1.46-1.05,2.81-2.19,4.05-3.43,1.24-1.24,2.27-2.4,3.1-3.47.13-.13.27-.16.43-.1.16.07.24.19.24.38ZM36.99,66.79c0-.83-.42-1.24-1.24-1.24-.64,0-1.29.24-1.95.71s-1.32,1.1-1.95,1.86c-.64.76-1.24,1.59-1.81,2.48-.57.89-1.05,1.75-1.43,2.57.13.06.35.11.67.14.32.03.57.05.76.05,1.84,0,3.46-.65,4.85-1.95,1.4-1.3,2.1-2.84,2.1-4.62Z"/>
      <path class="cls-1" d="M67.37,72.78c-.95,1.21-2.03,2.43-3.24,3.67-1.21,1.24-2.45,2.41-3.72,3.52s-2.57,2.11-3.9,3c-1.34.89-2.6,1.59-3.81,2.09-.95.38-1.83.65-2.62.81-.8.16-1.54.24-2.24.24-3.49,0-5.24-1.46-5.24-4.38,0-1.14.25-2.35.76-3.62,1.21-2.98,2.91-5.63,5.09-7.95,2.19-2.32,4.56-4.01,7.1-5.09.76-.32,1.4-.48,1.9-.48,2.35,0,3.52.92,3.52,2.76,0,.95-.22,1.68-.67,2.19-.38.38-1.02.92-1.9,1.62l-.29-.09c.19-.51.29-1.05.29-1.62,0-.63-.24-1.24-.71-1.81-.48-.57-1.22-.86-2.24-.86-1.21,0-2.37.4-3.47,1.19-1.11.79-2.1,1.84-2.95,3.14-.86,1.3-1.54,2.8-2.05,4.48-.51,1.68-.76,3.41-.76,5.19,0,1.33.36,2.33,1.09,3,.73.67,1.63,1,2.72,1,1.77,0,4.17-1.03,7.19-3.1,3.01-2.06,6.24-5.19,9.67-9.38.32-.32.55-.4.71-.24.16.16.08.4-.24.71Z"/>
      <path class="cls-1" d="M85.08,50.79c-.51.13-1.08.37-1.71.71-.63.35-1.11.78-1.43,1.29-1.46,2.03-2.87,4.16-4.24,6.38-1.37,2.22-2.68,4.44-3.95,6.67h11.81c.19.13.29.25.29.38s-.06.22-.19.29c-.51,0-1.27.02-2.29.05s-2.13.08-3.33.14c-1.21.07-2.44.13-3.71.19-1.27.06-2.38.13-3.33.19-1.78,3.18-3.14,5.87-4.1,8.1-.95,2.22-1.43,4.16-1.43,5.81,0,2.29,1.05,3.43,3.14,3.43,1.02,0,2.17-.27,3.47-.81,1.3-.54,2.68-1.25,4.14-2.14.19-.19.38-.17.57.05.19.22.13.4-.19.52-2.16,1.4-4.16,2.41-6,3.05-1.85.63-3.72.95-5.62.95-1.02,0-1.9-.3-2.67-.9-.76-.6-1.14-1.64-1.14-3.1,0-1.27.57-3.14,1.71-5.62s2.82-5.52,5.05-9.14c-.76.06-1.7.14-2.81.24-1.11.09-1.76.14-1.95.14-.32,0-.48-.13-.48-.38.25-.44.67-.89,1.24-1.33l4.85-.09c.57-.95,1.21-2.02,1.9-3.19.7-1.17,1.4-2.35,2.09-3.52.7-1.17,1.41-2.32,2.14-3.43s1.38-2.14,1.95-3.1c.7-.32,1.67-.73,2.91-1.24,1.24-.51,2.33-.92,3.28-1.24.13,0,.22.08.29.24s-.03.3-.29.43Z"/>
      <path class="cls-1" d="M110.89,74.12c-1.08,1.52-2.35,3.13-3.81,4.81-1.46,1.68-2.98,3.22-4.57,4.62s-3.21,2.55-4.85,3.48c-1.65.92-3.21,1.38-4.67,1.38-1.08,0-1.92-.29-2.52-.86-.61-.57-.9-1.46-.9-2.67,0-.57.08-1.22.24-1.95.16-.73.43-1.54.81-2.43-.38.45-.81.97-1.28,1.57-.48.6-1.02,1.18-1.62,1.71s-1.27.98-2,1.33c-.73.35-1.54.52-2.43.52-.7,0-1.27-.2-1.71-.62-.44-.41-.67-1.06-.67-1.95,0-.51.11-1.14.33-1.9.22-.76.63-1.79,1.24-3.1.6-1.3,1.43-2.92,2.48-4.86,1.05-1.94,2.4-4.33,4.05-7.19.32-.63.6-.95.86-.95.45,0,.91.27,1.38.81.48.54.71.91.71,1.1s-.19.57-.57,1.14c-1.02,1.53-1.97,3.05-2.86,4.57s-1.67,2.95-2.33,4.29-1.21,2.52-1.62,3.57c-.42,1.05-.62,1.86-.62,2.43,0,.95.35,1.43,1.05,1.43.63,0,1.51-.49,2.62-1.48,1.11-.98,2.43-2.65,3.95-5,.57-1.02,1.16-2.08,1.76-3.19.6-1.11,1.19-2.17,1.76-3.19.57-1.02,1.11-1.95,1.62-2.81.51-.86.89-1.51,1.14-1.95.32-.44.57-.67.76-.67.25,0,.54.27.86.81.32.54.48,1.19.48,1.95,0,.51-.13.99-.38,1.43-.76,1.14-1.57,2.27-2.43,3.38-.86,1.11-1.65,2.27-2.38,3.47-.73,1.21-1.35,2.48-1.86,3.81-.51,1.33-.76,2.8-.76,4.38,0,1.4.67,2.09,2,2.09.89,0,1.95-.33,3.19-1,1.24-.67,2.59-1.6,4.05-2.81,1.46-1.21,2.97-2.67,4.52-4.38,1.56-1.71,3.03-3.59,4.43-5.62.38-.13.57.03.57.48Z"/>
      <path class="cls-1" d="M127.37,66.12c-.38.44-.78.99-1.19,1.62-.42.63-.68,1.11-.81,1.43-.06.19-.19.28-.38.28-.07,0-.16-.09-.29-.28-.13-.19-.3-.4-.52-.62-.22-.22-.52-.43-.9-.62-.38-.19-.92-.29-1.62-.29-.83,0-1.75.29-2.76.86s-1.9,1.21-2.67,1.9c-1.21,1.02-2.27,2.13-3.19,3.33-.92,1.21-1.8,2.46-2.62,3.76-.83,1.3-1.62,2.63-2.38,4s-1.59,2.75-2.48,4.14c-.06.19-.25.29-.57.29-.13,0-.4-.19-.81-.57-.41-.38-.62-.67-.62-.86,0-.38.22-.95.67-1.71,1.02-1.78,2.05-3.57,3.1-5.38,1.05-1.81,2.03-3.51,2.95-5.09.92-1.59,1.73-2.97,2.43-4.14.7-1.17,1.18-2.05,1.43-2.62.32-.57.54-.86.67-.86s.45.16.95.48c.51.32.76.76.76,1.33,0,.19-.11.51-.33.95-.22.44-.48.9-.76,1.38s-.56.94-.81,1.38-.44.76-.57.95c-.19.32-.22.48-.1.48s.29-.09.48-.29c.63-.63,1.41-1.33,2.33-2.09.92-.76,1.89-1.48,2.91-2.14,1.02-.67,2.02-1.22,3-1.67.99-.44,1.86-.67,2.62-.67.57,0,1.06.14,1.48.43.41.28.62.59.62.9Z"/>
      <path class="cls-1" d="M147.84,74.21c-1.08,1.33-2.37,2.71-3.86,4.14s-3.11,2.73-4.86,3.91-3.56,2.13-5.43,2.86c-1.87.73-3.73,1.09-5.57,1.09-2.98,0-4.48-1.33-4.48-4,0-1.78.46-3.7,1.38-5.76.92-2.06,2.11-3.97,3.57-5.71,1.46-1.74,3.07-3.2,4.81-4.38,1.74-1.17,3.41-1.76,5-1.76.89,0,1.51.16,1.86.48.35.32.52.73.52,1.24,0,.76-.24,1.59-.71,2.48s-1.19,1.73-2.14,2.52-2.16,1.46-3.62,2c-1.46.54-3.21.81-5.24.81-.32.57-.67,1.48-1.05,2.71-.38,1.24-.57,2.49-.57,3.76,0,2.6,1.18,3.9,3.52,3.9,1.46,0,2.97-.35,4.52-1.05s3.07-1.57,4.52-2.62c1.46-1.05,2.81-2.19,4.05-3.43,1.24-1.24,2.27-2.4,3.1-3.47.13-.13.27-.16.43-.1.16.07.24.19.24.38ZM137.84,66.79c0-.83-.42-1.24-1.24-1.24-.64,0-1.29.24-1.95.71s-1.32,1.1-1.95,1.86c-.64.76-1.24,1.59-1.81,2.48-.57.89-1.05,1.75-1.43,2.57.13.06.35.11.67.14.32.03.57.05.76.05,1.84,0,3.46-.65,4.85-1.95,1.4-1.3,2.1-2.84,2.1-4.62Z"/>
    </g>
  </g>
</svg>