<?xml version="1.0" encoding="UTF-8"?>
<svg id="Calque_2" data-name="Calque 2" xmlns="http://www.w3.org/2000/svg" viewBox="0 0 244.72 116.48">
  <defs>
    <style>
      .cls-1 {
        fill: #fff;
      }
    </style>
  </defs>
  <g id="Calque_1-2" data-name="Calque 1">
    <g>
      <path class="cls-1" d="M91.99,28.72h-9.45v-2.9c0-1.35-.12-2.21-.36-2.59-.24-.37-.64-.56-1.21-.56-.61,0-1.08.25-1.39.75s-.47,1.26-.47,2.27c0,1.31.19,2.29.53,2.95.34.65,1.3,1.46,2.88,2.39,4.53,2.69,7.4,5.01,8.6,6.89,1.21,1.88,1.87,4.96,2,9.39.1,3.22-.16,5.64-.76,7.32-.6,1.68-1.81,3.31-3.62,4.88-1.81,1.57-3.92,2.73-6.35,3.37-2.67.7-4.96.6-6.89-.36-1.93-.96-3.23-2.55-3.9-4.73-.67-2.18-1.1-5.54-1.28-9.88-.06-1.52-.09-2.27-.15-3.75,3.78,0,5.66-.08,9.42-.31.09,2.57.14,3.92.24,6.55.08,2.03.25,3.3.54,3.82.28.52.76.71,1.42.59.67-.13,1.15-.58,1.45-1.34.3-.76.43-1.83.38-3.22-.11-3.05-.49-5.02-1.15-5.9-.66-.88-2.32-2.34-4.89-4.44-2.59-2.1-4.3-3.6-5.13-4.47-.84-.87-1.52-1.95-2.06-3.29-.54-1.34-.81-3.04-.81-5.12,0-3,.38-5.19,1.15-6.57.76-1.39,2-2.47,3.71-3.25,1.71-.78,3.77-1.17,6.19-1.17,2.64,0,4.89.43,6.75,1.28,1.86.85,3.09,1.93,3.7,3.23.6,1.3.91,3.5.91,6.61v1.55Z"/>
      <path class="cls-1" d="M96.03,16.88h16.96v7.83h-6.79v7.42h6.36c0,2.98,0,4.3,0,6.83-2.54.07-3.8.12-6.34.24.03,3.18.07,4.72.12,7.86,2.94-.55,4.42-.79,7.38-1.15.02,2.52.03,3.78.03,6.61-6.95,1.32-10.38,2.63-17.25,4.98-.29-13.55-.48-27.07-.47-40.62ZM112.53,9.09c-3.18,2.62-4.77,3.93-7.95,6.55h-4.91c1.7-2.62,2.55-3.93,4.25-6.55h8.6Z"/>
      <path class="cls-1" d="M116.59,16.88h7.2c4.8,0,8.05.19,9.75.56,1.7.37,3.08,1.32,4.16,2.84s1.61,3.95,1.61,7.29c0,3.04-.38,5.14-1.14,6.14-.76,1-2.25,1.58-4.47,1.76,2.01.47,3.37,1.1,4.06,1.89.69.79,1.12,1.52,1.29,2.18.17.66.25,2.46.25,5.36v9.59c-3.78-1.08-5.67-1.56-9.45-2.18v-10.61c0-1.67-.17-2.75-.5-3.18-.33-.42-1.2-.64-2.6-.64v14c-4.07-.44-6.11-.38-10.14.17-.03-11.72-.03-23.45-.04-35.17ZM126.77,23.57v8.7c1.14,0,1.95-.16,2.4-.47.46-.31.69-1.33.69-3.06v-2.15c0-1.24-.22-2.05-.66-2.44-.44-.39-1.25-.58-2.43-.58Z"/>
      <path class="cls-1" d="M153.42,16.88v42.09c-4.07-1.31-6.1-2.03-10.17-3.3V16.88h10.17Z"/>
      <path class="cls-1" d="M157.51,16.88h16.96v7.83h-6.79v7.42h6.36v8.64c-2.54.02-3.81,0-6.36-.06v11.9c2.99.37,4.48.5,7.47.6v10.55c-7.06-.36-10.58-1.37-17.64-3.51V16.88Z"/>
      <path class="cls-1" d="M13.58,67.3c4.1.04,6.17.18,10.32.57,2.8.27,4.97.74,6.47,1.31,1.51.57,2.63,1.25,3.38,2.02s1.23,1.64,1.48,2.62c.24.99.34,2.46.3,4.65-.02,1.22-.02,1.85-.03,3.18,0,2.45-.26,4.31-.77,5.46-.52,1.14-1.46,2.02-2.84,2.63-1.38.61-3.18.92-5.4.92h-2.73v15.76h-10.17v-39.13ZM23.78,74.17c-.03,3.77-.02,5.8-.02,9.79.29.02.54.02.75.02.93,0,1.58-.23,1.95-.69.36-.46.54-1.45.54-2.89,0-1.27,0-1.89.01-3.1,0-1.26-.19-2.07-.61-2.46-.42-.39-1.29-.62-2.62-.67Z"/>
      <path class="cls-1" d="M38.73,69.77c2.93.43,4.4.66,7.33,1.08,4.89.7,8.18,1.22,9.88,1.62,1.7.4,3.05,1.07,4.05,1.96.99.9,1.38,2.07,1.25,4.4-.11,2.12-.48,4.24-1.24,5.29-.76,1.05-2.25,1.68-4.47,1.88,2.01.5,3.37,1.17,4.06,2.01.69.84,1.12,1.61,1.29,2.31.17.7.25,2.63.25,5.79v10.32h-9.45v-13c0-2.09-.17-3.39-.5-3.89-.33-.5-1.2-.75-2.6-.75v17.64h-10.17c0-12.21-.23-24.45.3-36.65ZM48.81,75.74c-.14,2.38-.2,3.58-.21,6.96,1.14,0,1.95-.15,2.41-.45.46-.3.7-1.27.74-2.64.02-.68.03-1.01.06-1.63.04-.89-.15-1.43-.57-1.71-.43-.28-1.24-.46-2.42-.53Z"/>
      <path class="cls-1" d="M75.91,72.46c-1.3,11.16-.66,22.78-.66,33.97h-10.17c0-11-.72-22.56.69-33.54,4.09.15,6.11.05,10.14-.43Z"/>
      <path class="cls-1" d="M80.19,66.16c3.38-.79,5.06-1.31,8.41-2.4,1.63,1.88,2.42,2.67,4.01,4.47-1.92.5-2.88.74-4.81,1.21-3.02-1.27-4.52-1.69-7.61-3.28ZM79.95,71.89c6.7-1.09,10.02-2,16.68-3.59-.08,2.87-.14,4.26-.22,7.15-2.7.25-4.04.37-6.74.61-.1,2.4-.14,3.63-.16,6.5,2.54,0,3.81,0,6.35,0,0,2.97,0,4.47,0,7.44h-6.36v8.6h7.47v7.83h-17.64c0-11.41-.55-23.15.61-34.54Z"/>
      <path class="cls-1" d="M100.16,67.46c2.83-.66,4.24-.98,7.08-1.53,4.73-.92,7.95-1.07,9.64-.77,1.69.3,3.07,1.42,4.13,3.33,1.07,1.91,1.61,5.11,1.61,9.03,0,3.58-.38,5.55-1.14,6.6-.76,1.05-2.25,1.68-4.47,1.88,2.01.5,3.37,1.17,4.06,2.01.69.84,1.12,1.61,1.29,2.31.17.7.25,2.63.25,5.79v10.32h-9.45v-13c0-2.09-.17-3.39-.5-3.89-.33-.5-1.2-.75-2.6-.75v17.64h-10.17c0-12.99-.14-25.98.26-38.96ZM110.11,73.08c-.03,3.97-.05,5.96-.03,9.62,1.14,0,1.94-.16,2.4-.5.46-.33.68-1.41.69-3.34,0-.96,0-1.46,0-2.45,0-1.43-.21-2.38-.65-2.81-.44-.43-1.24-.6-2.41-.52Z"/>
      <path class="cls-1" d="M126.56,64.37c6.79.52,10.18,1.26,16.96,2.76v7.88c-2.72-.23-4.07-.34-6.79-.51v8.04c2.54,0,3.81,0,6.36,0v7.45h-6.36v8.6h7.47v7.83h-17.64v-42.06Z"/>
      <path class="cls-1" d="M177.66,89.04v7.72c-1.27.81-1.91,1.22-3.18,2.04,1.6,3.05,2.39,4.58,3.99,7.63h-10.57c-.55-1.02-.82-1.53-1.37-2.54-3.54,2.34-6.9,3.5-10.06,3.5s-5.87-1.1-7.66-3.31c-1.79-2.21-2.69-4.86-2.69-7.97,0-2.49.53-4.44,1.58-5.85,1.06-1.41,2.64-2.56,4.75-3.45-3.02-2.17-4.52-5.16-4.52-8.69,0-3.04,1.07-5.32,3.22-6.62,2.15-1.3,5.11-1.34,8.88-.6,3.39.67,6.06,1.73,8.01,3.04,1.95,1.31,2.93,2.56,2.93,4.58,0,2.12-1.19,4.84-3.56,7.23,1.61,2.91,2.42,4.37,4.03,7.29,2.49-1.6,3.74-2.4,6.23-4.01ZM162.61,98.72c-1.47-2.47-2.21-3.7-3.69-6.17-1.42,1.28-2.12,2.67-2.12,4.16,0,1.07.22,1.88.66,2.42s1.09.81,1.96.81c.92,0,1.98-.4,3.19-1.21ZM160.05,81.18c1.28-1.49,1.92-2.72,1.92-3.84,0-.49-.19-.93-.57-1.35-.38-.42-.9-.66-1.58-.73-.62-.06-1.09.04-1.41.33-.32.28-.48.76-.48,1.42,0,1.4.71,2.81,2.12,4.16Z"/>
      <path class="cls-1" d="M204.24,84.34h-10.17v-6.02c0-1.48-.11-2.27-.33-2.58s-.7-.44-1.44-.39c-.84.05-1.37.27-1.6.66-.23.39-.34,1.18-.34,2.64v17.39c0,1.9.11,3.14.34,3.72s.73.87,1.52.87,1.25-.29,1.49-.87.35-1.95.35-4.09v-4.92h10.17v1.52c0,4.05-.29,6.92-.86,8.62-.57,1.69-1.84,3.18-3.79,4.45-1.96,1.27-4.37,1.91-7.24,1.91s-5.44-.54-7.37-1.62c-1.93-1.08-3.21-2.57-3.84-4.48-.63-1.91-.94-4.78-.94-8.62v-11.3c0-2.44.1-3.63.29-4.46s.77-1.54,1.73-2.28c.96-.74,2.29-1.38,3.99-1.97,1.7-.59,3.65-1.05,5.86-1.34,3-.39,5.47-.37,7.42.19,1.95.56,3.23,1.48,3.84,2.73.61,1.25.92,3.23.92,6.6v3.63Z"/>
      <path class="cls-1" d="M231.13,90.21c0,3.93-.09,6.71-.28,8.35-.19,1.64-.77,3.13-1.74,4.48-.97,1.35-2.29,2.39-3.95,3.12-1.66.72-3.59,1.09-5.8,1.09s-3.98-.34-5.64-1.03c-1.67-.68-3.01-1.71-4.02-3.08-1.02-1.37-1.62-2.86-1.81-4.47-.19-1.61-.29-4.43-.29-8.46v-6.69c0-3.93.09-6.28.28-7.65.19-1.37.77-2.61,1.74-3.83.97-1.21,2.29-2.26,3.95-3.11,1.66-.85,3.59-1.44,5.8-1.69,2.09-.23,3.98-.07,5.64.49,1.67.56,3.01,1.53,4.02,2.87,1.02,1.34,1.62,2.84,1.81,4.45.19,1.61.29,4.43.29,8.46v6.69ZM220.96,77.38c0-1.76-.1-2.85-.3-3.33-.2-.47-.62-.69-1.24-.66-.53.03-.94.24-1.22.63-.28.39-.42,1.5-.42,3.41v18.19c0,2.27.09,3.67.28,4.21.19.53.62.8,1.29.8s1.14-.31,1.33-.92c.19-.61.29-2.07.29-4.37v-17.96Z"/>
    </g>
  </g>
</svg>