<?xml version="1.0" encoding="UTF-8"?>
<svg id="Calque_2" data-name="Calque 2" xmlns="http://www.w3.org/2000/svg" viewBox="0 0 187.19 57.31">
  <defs>
    <style>
      .cls-1 {
        fill: none;
        stroke: #D4A5E3;
        stroke-miterlimit: 10;
        stroke-width: 3px;
      }

      .cls-2 {
        fill: #D4A5E3;
      }
    </style>
  </defs>
  <g id="Calque_1-2" data-name="Calque 1">
    <g>
      <g>
        <path class="cls-2" d="M98.18,55.38c-9.94-.33-14.33-8.3-14.21-15.57.17-10.4,7.71-15.13,14.65-15.13h.34c.16-.01.36-.02.57-.02,6.37,0,14.34,7.57,20.74,13.65,2.52,2.39,4.91,4.66,6.83,6.11,0-1.8,0-5.61,0-9.91,0-8.36.02-18.76,0-19.36-.85-6.02-5.79-8.18-9.76-8.18-3.19,0-6.24,1.28-8.16,3.43-1.73,1.94-2.48,4.48-2.16,7.34,0,.18.03.32.05.46l.04.29v.08c-.29,1.4-1.13,2.23-2.28,2.23-.81,0-1.65-.45-2.19-1.17-.59-.78-.77-1.78-.51-2.76.46-10.48,7.68-15.17,14.65-15.17,4.35,0,8.53,1.79,11.48,4.9,3.23,3.41,4.78,8.1,4.49,13.56h-.03v29.68c-.32,1.39-1.48,2.28-2.97,2.28-1.09,0-2.15-.5-2.76-1.3l.05-.04c-.67-.48-2.3-1.9-6.81-5.83l-6.82-5.95c-1.08-.81-2.24-1.9-3.47-3.05-3.14-2.94-6.69-6.26-10.5-6.26-.15,0-.29,0-.44.01h-.31c-6.24,0-9.38,4.99-9.66,9.62-.28,4.62,2.24,9.94,8.44,10.69.39.04,1.51.07,3.32.07,2.05,0,4.71-.03,7.28-.05,2.39-.02,4.7-.05,6.35-.05,1.1,0,1.81.01,2.18.03,1.27.27,2.09,1.33,2.12,2.64.03,1.3-.75,2.39-1.92,2.7l-.06.02h-18.55Z"/>
        <path class="cls-1" d="M98.18,55.38c-9.94-.33-14.33-8.3-14.21-15.57.17-10.4,7.71-15.13,14.65-15.13h.34c.16-.01.36-.02.57-.02,6.37,0,14.34,7.57,20.74,13.65,2.52,2.39,4.91,4.66,6.83,6.11,0-1.8,0-5.61,0-9.91,0-8.36.02-18.76,0-19.36-.85-6.02-5.79-8.18-9.76-8.18-3.19,0-6.24,1.28-8.16,3.43-1.73,1.94-2.48,4.48-2.16,7.34,0,.18.03.32.05.46l.04.29v.08c-.29,1.4-1.13,2.23-2.28,2.23-.81,0-1.65-.45-2.19-1.17-.59-.78-.77-1.78-.51-2.76.46-10.48,7.68-15.17,14.65-15.17,4.35,0,8.53,1.79,11.48,4.9,3.23,3.41,4.78,8.1,4.49,13.56h-.03v29.68c-.32,1.39-1.48,2.28-2.97,2.28-1.09,0-2.15-.5-2.76-1.3l.05-.04c-.67-.48-2.3-1.9-6.81-5.83l-6.82-5.95c-1.08-.81-2.24-1.9-3.47-3.05-3.14-2.94-6.69-6.26-10.5-6.26-.15,0-.29,0-.44.01h-.31c-6.24,0-9.38,4.99-9.66,9.62-.28,4.62,2.24,9.94,8.44,10.69.39.04,1.51.07,3.32.07,2.05,0,4.71-.03,7.28-.05,2.39-.02,4.7-.05,6.35-.05,1.1,0,1.81.01,2.18.03,1.27.27,2.09,1.33,2.12,2.64.03,1.3-.75,2.39-1.92,2.7l-.06.02h-18.55Z"/>
      </g>
      <g>
        <path class="cls-2" d="M181.63,55.81c-1.13,0-1.99-.26-2.65-.79-.76-.61-1.68-1.61-2.75-2.98-2.12-2.84-4.32-5.87-6.54-9.02-2.15-3.05-4.4-6.19-6.7-9.31l-.76-1.03-.78,1.02c-2.69,3.53-5.5,7.28-8.35,11.14-2.55,3.44-5.14,7.03-7.7,10.67l-.13.19h-1.16c-1.57,0-2.73-.32-3.45-.95-.71-.61-1.03-1.32-1.03-2.23,0-.5.12-1.04.34-1.59.24-.59.88-1.56,1.83-2.81,2.43-3.29,5.01-6.54,7.66-9.66,2.62-3.08,5.33-6.35,8.07-9.72l.49-.61-.5-.61c-3.29-4-6.4-7.84-9.22-11.41-2.71-3.42-5.49-6.97-8.34-10.65l-.14-.18.06-.22c.29-1.08.74-1.94,1.32-2.55.65-.69,1.47-1.01,2.56-1.01s1.93.26,2.5.76c.7.62,1.48,1.48,2.31,2.54,2.02,2.72,4.14,5.67,6.3,8.77,2.18,3.13,4.48,6.27,6.83,9.33l.75.98.76-.97c2.92-3.71,5.69-7.24,8.29-10.6,2.48-3.19,5.08-6.76,7.73-10.6l.12-.17.21-.02c.17-.01.35-.02.53-.02,1.43,0,2.54.31,3.31.92.71.56,1.06,1.31,1.06,2.27,0,.74-.15,1.42-.45,2.09-.32.72-.86,1.57-1.6,2.53-2.43,2.98-4.93,6.03-7.5,9.15-2.44,2.97-4.93,5.97-7.63,9.17l-.5.59.47.61c3.13,4.09,6.26,8.1,9.3,11.91,2.92,3.65,5.92,7.45,8.91,11.3l.12.16-.04.2c-.19,1.01-.57,1.79-1.18,2.39-.69.69-1.59,1.02-2.75,1.02Z"/>
        <path class="cls-1" d="M181.63,55.81c-1.13,0-1.99-.26-2.65-.79-.76-.61-1.68-1.61-2.75-2.98-2.12-2.84-4.32-5.87-6.54-9.02-2.15-3.05-4.4-6.19-6.7-9.31l-.76-1.03-.78,1.02c-2.69,3.53-5.5,7.28-8.35,11.14-2.55,3.44-5.14,7.03-7.7,10.67l-.13.19h-1.16c-1.57,0-2.73-.32-3.45-.95-.71-.61-1.03-1.32-1.03-2.23,0-.5.12-1.04.34-1.59.24-.59.88-1.56,1.83-2.81,2.43-3.29,5.01-6.54,7.66-9.66,2.62-3.08,5.33-6.35,8.07-9.72l.49-.61-.5-.61c-3.29-4-6.4-7.84-9.22-11.41-2.71-3.42-5.49-6.97-8.34-10.65l-.14-.18.06-.22c.29-1.08.74-1.94,1.32-2.55.65-.69,1.47-1.01,2.56-1.01s1.93.26,2.5.76c.7.62,1.48,1.48,2.31,2.54,2.02,2.72,4.14,5.67,6.3,8.77,2.18,3.13,4.48,6.27,6.83,9.33l.75.98.76-.97c2.92-3.71,5.69-7.24,8.29-10.6,2.48-3.19,5.08-6.76,7.73-10.6l.12-.17.21-.02c.17-.01.35-.02.53-.02,1.43,0,2.54.31,3.31.92.71.56,1.06,1.31,1.06,2.27,0,.74-.15,1.42-.45,2.09-.32.72-.86,1.57-1.6,2.53-2.43,2.98-4.93,6.03-7.5,9.15-2.44,2.97-4.93,5.97-7.63,9.17l-.5.59.47.61c3.13,4.09,6.26,8.1,9.3,11.91,2.92,3.65,5.92,7.45,8.91,11.3l.12.16-.04.2c-.19,1.01-.57,1.79-1.18,2.39-.69.69-1.59,1.02-2.75,1.02Z"/>
      </g>
      <g>
        <path class="cls-2" d="M74.46,55.4c-3.19,0-3.63-1.35-3.63-2.8V19.11c0-4.3-1.29-7.55-3.84-9.64-2.47-2.03-5.76-3.05-9.8-3.05-5.47,0-10.42,1.96-14.7,5.82l-.68.62.26.88c.43,1.44.65,3.01.65,4.67v36.55l-.72.18c-.71.17-1.45.25-2.2.25-3.19,0-3.63-1.35-3.63-2.8V19.11c0-4.3-1.29-7.54-3.85-9.64-2.47-2.03-5.8-3.05-9.92-3.05-2.67,0-5.24.43-7.64,1.27-2.35.83-4.39,1.79-6.05,2.88l-.66.43v43.97l-.68.18c-.66.17-1.42.25-2.24.25-3.19,0-3.63-1.35-3.63-2.8V12.25c0-1.29.26-2.36.78-3.19.55-.88,1.59-1.83,3.07-2.82,1.98-1.25,4.58-2.36,7.71-3.31,3.12-.94,6.31-1.42,9.46-1.42,3.67,0,6.95.55,9.77,1.62,2.74,1.04,4.84,2.47,6.24,4.22l.96,1.19,1.15-1.01c1.91-1.69,4.36-3.14,7.26-4.29,2.89-1.15,6.25-1.73,9.99-1.73,6.02,0,10.84,1.42,14.35,4.23,3.45,2.77,5.13,6.99,5.13,12.88v36.33l-.64.15c-.77.18-1.52.27-2.28.27Z"/>
        <path class="cls-2" d="M74.46,56.9c-3.4,0-5.13-1.45-5.13-4.3V19.11c0-3.83-1.11-6.69-3.3-8.48-2.19-1.8-5.17-2.71-8.85-2.71-5.08,0-9.69,1.82-13.68,5.41.47,1.57.71,3.28.71,5.07v37.72l-1.85.47c-.85.2-1.71.3-2.58.3-3.4,0-5.13-1.45-5.13-4.3V19.11c0-3.83-1.11-6.69-3.3-8.48-2.19-1.8-5.21-2.71-8.96-2.71-2.5,0-4.91.4-7.14,1.18-2.23.78-4.15,1.69-5.71,2.7v44.31l-1.79.48c-.8.2-1.68.3-2.63.3-3.4,0-5.13-1.45-5.13-4.3V12.25c0-1.57.34-2.92,1.01-3.98.68-1.08,1.82-2.15,3.5-3.27,2.13-1.34,4.85-2.51,8.11-3.5C15.89.52,19.22.02,22.52.02c3.85,0,7.32.58,10.31,1.72,2.97,1.14,5.28,2.7,6.85,4.65,2.04-1.79,4.62-3.32,7.67-4.53C50.42.64,53.97.02,57.9.02c6.37,0,11.51,1.54,15.29,4.56,3.83,3.07,5.69,7.67,5.69,14.05v37.51l-1.79.43c-.89.21-1.75.31-2.63.31ZM57.19,4.92c4.39,0,8.01,1.14,10.75,3.39,2.91,2.4,4.39,6.03,4.39,10.8v33.48c0,.81,0,1.3,2.13,1.3.48,0,.94-.04,1.42-.13V18.64c0-5.41-1.49-9.25-4.57-11.71-3.23-2.59-7.75-3.9-13.41-3.9-3.55,0-6.72.55-9.44,1.62-2.74,1.09-5.04,2.45-6.82,4.02l-2.33,2.06-1.94-2.42c-1.24-1.55-3.13-2.81-5.61-3.76-2.65-1.01-5.76-1.52-9.24-1.52-3.01,0-6.04.46-9.03,1.35-3.01.91-5.48,1.96-7.35,3.14-1.59,1.06-2.29,1.87-2.6,2.35-.37.58-.55,1.39-.55,2.39v40.34c0,.81,0,1.3,2.13,1.3.51,0,.99-.04,1.42-.11V10.18l1.34-.88c1.77-1.15,3.91-2.17,6.37-3.03,2.56-.9,5.3-1.35,8.14-1.35,4.47,0,8.13,1.14,10.87,3.39,2.92,2.4,4.39,6.03,4.39,10.8v33.48c0,.81,0,1.3,2.13,1.3.48,0,.96-.04,1.42-.12V18.4c0-1.51-.2-2.94-.59-4.24l-.54-1.79,1.39-1.25c4.57-4.12,9.85-6.2,15.71-6.2Z"/>
      </g>
    </g>
  </g>
</svg>