<?xml version="1.0" encoding="UTF-8"?>
<svg id="Calque_2" data-name="Calque 2" xmlns="http://www.w3.org/2000/svg" viewBox="0 0 363.15 66.04">
  <defs>
    <style>
      .cls-1 {
        fill: #fff;
      }
    </style>
  </defs>
  <g id="Calque_1-2" data-name="Calque 1">
    <g>
      <path class="cls-1" d="M10.71.63h4.52l10.78,24.78h-6.16l-2.13-5.25h-9.62l-2.06,5.25H0L10.71.63ZM12.81,7.84l-3.01,7.7h6.06l-3.04-7.7Z"/>
      <path class="cls-1" d="M27.37.63h16.62v5.04h-11.17v5.04h10.32v5.04h-10.32v9.66h-5.46V.63Z"/>
      <path class="cls-1" d="M46.79.63h16.62v5.04h-11.17v5.04h10.32v5.04h-10.32v9.66h-5.46V.63Z"/>
      <path class="cls-1" d="M65.94.63h5.46v24.78h-5.46V.63Z"/>
      <path class="cls-1" d="M91.24,7.07c-.54-.65-1.2-1.16-1.98-1.5-.78-.35-1.69-.53-2.71-.53s-1.98.2-2.85.59c-.88.4-1.63.95-2.28,1.66s-1.14,1.56-1.5,2.54c-.36.98-.54,2.04-.54,3.19s.18,2.23.54,3.2c.36.97.86,1.81,1.49,2.52.63.71,1.37,1.27,2.22,1.66s1.77.59,2.75.59c1.12,0,2.11-.23,2.97-.7.86-.47,1.58-1.12,2.13-1.96l4.55,3.4c-1.05,1.47-2.38,2.55-3.99,3.25-1.61.7-3.27,1.05-4.97,1.05-1.94,0-3.72-.3-5.35-.91-1.63-.61-3.04-1.48-4.24-2.61-1.19-1.13-2.12-2.5-2.78-4.11s-1-3.41-1-5.39.33-3.78,1-5.39c.67-1.61,1.59-2.98,2.78-4.11,1.19-1.13,2.6-2,4.24-2.61,1.63-.61,3.42-.91,5.35-.91.7,0,1.43.06,2.19.19.76.13,1.51.33,2.24.61.74.28,1.44.65,2.12,1.12.68.47,1.28,1.04,1.82,1.72l-4.2,3.43Z"/>
      <path class="cls-1" d="M97.68.63h5.46v9.24h10.6V.63h5.46v24.78h-5.46v-10.71h-10.6v10.71h-5.46V.63Z"/>
      <path class="cls-1" d="M131.07.63h4.52l10.78,24.78h-6.16l-2.13-5.25h-9.62l-2.06,5.25h-6.02L131.07.63ZM133.17,7.84l-3.01,7.7h6.06l-3.04-7.7Z"/>
      <path class="cls-1" d="M169.96,23.66c-1.61.84-3.29,1.45-5.04,1.82s-3.54.56-5.36.56c-1.94,0-3.72-.3-5.35-.91-1.63-.61-3.04-1.48-4.24-2.61-1.19-1.13-2.12-2.5-2.78-4.11s-1-3.41-1-5.39.33-3.78,1-5.39c.67-1.61,1.59-2.98,2.78-4.11,1.19-1.13,2.6-2,4.24-2.61,1.63-.61,3.42-.91,5.35-.91s3.81.24,5.48.72,3.13,1.3,4.39,2.47l-3.85,4.2c-.75-.77-1.59-1.35-2.52-1.75-.93-.4-2.1-.59-3.5-.59-1.17,0-2.22.2-3.17.59-.95.4-1.76.95-2.43,1.66s-1.2,1.56-1.56,2.54c-.36.98-.54,2.04-.54,3.19s.18,2.23.54,3.2c.36.97.88,1.81,1.56,2.52.68.71,1.49,1.27,2.43,1.66s2,.59,3.17.59,2.22-.13,3.08-.4c.86-.27,1.55-.54,2.07-.82v-4.03h-4.45v-5.04h9.7v12.95Z"/>
      <path class="cls-1" d="M173.63.63h16.83v5.04h-11.38v4.62h10.74v5.04h-10.74v5.04h12v5.04h-17.46V.63Z"/>
      <path class="cls-1" d="M203.17.63h9.24c1.07,0,2.15.08,3.24.23,1.08.15,2.06.46,2.92.91s1.56,1.09,2.1,1.91c.54.82.81,1.9.81,3.25s-.39,2.56-1.17,3.48c-.78.92-1.81,1.58-3.1,1.98v.07c.82.12,1.56.34,2.22.68.67.34,1.24.77,1.71,1.29.48.53.85,1.14,1.1,1.84s.39,1.45.39,2.24c0,1.31-.28,2.4-.84,3.27-.56.88-1.28,1.58-2.17,2.12-.89.54-1.88.92-2.99,1.16s-2.21.35-3.31.35h-10.15V.63ZM208.63,10.54h3.95c.42,0,.83-.05,1.24-.14.41-.09.78-.25,1.1-.46.33-.21.59-.49.79-.84.2-.35.3-.77.3-1.26s-.11-.94-.33-1.28c-.22-.34-.51-.6-.86-.79-.35-.19-.75-.32-1.19-.4-.44-.08-.88-.12-1.29-.12h-3.71v5.29ZM208.63,20.79h4.9c.42,0,.85-.05,1.28-.14.43-.09.82-.26,1.17-.49s.64-.54.86-.91c.22-.37.33-.83.33-1.37,0-.58-.15-1.05-.44-1.42-.29-.36-.66-.64-1.1-.82-.44-.19-.92-.32-1.44-.39-.51-.07-.99-.1-1.43-.1h-4.13v5.63Z"/>
      <path class="cls-1" d="M245.42,15.86c0,1.47-.22,2.82-.67,4.06-.44,1.24-1.1,2.31-1.98,3.22-.88.91-1.97,1.62-3.27,2.14-1.31.51-2.81.77-4.51.77s-3.24-.26-4.55-.77c-1.31-.51-2.4-1.23-3.27-2.14-.88-.91-1.53-1.98-1.98-3.22-.44-1.24-.67-2.59-.67-4.06V.63h5.46v15.02c0,.77.12,1.48.37,2.13s.59,1.22,1.03,1.7c.44.48.97.85,1.59,1.12.62.27,1.29.4,2.01.4s1.39-.13,2-.4c.61-.27,1.13-.64,1.57-1.12.44-.48.79-1.04,1.03-1.7.24-.65.37-1.37.37-2.13V.63h5.46v15.23Z"/>
      <path class="cls-1" d="M249.13.63h9.59c1.26,0,2.46.12,3.59.37,1.13.24,2.12.65,2.98,1.22.85.57,1.53,1.34,2.03,2.31.5.97.75,2.18.75,3.62,0,1.75-.46,3.24-1.37,4.46-.91,1.23-2.24,2-3.99,2.33l6.3,10.46h-6.54l-5.18-9.91h-2.69v9.91h-5.46V.63ZM254.59,10.88h3.22c.49,0,1.01-.02,1.56-.05.55-.04,1.04-.14,1.49-.32.44-.17.81-.45,1.1-.82.29-.37.44-.9.44-1.58,0-.63-.13-1.13-.38-1.5-.26-.37-.58-.66-.98-.86s-.85-.33-1.37-.4c-.51-.07-1.01-.11-1.5-.11h-3.57v5.63Z"/>
      <path class="cls-1" d="M270.69.63h16.83v5.04h-11.38v4.62h10.74v5.04h-10.74v5.04h12v5.04h-17.46V.63Z"/>
      <path class="cls-1" d="M299.35.63h4.52l10.78,24.78h-6.16l-2.13-5.25h-9.62l-2.06,5.25h-6.02l10.71-24.78ZM301.45,7.84l-3.01,7.7h6.06l-3.04-7.7Z"/>
      <path class="cls-1" d="M336.7,15.86c0,1.47-.22,2.82-.67,4.06-.44,1.24-1.1,2.31-1.98,3.22-.88.91-1.97,1.62-3.27,2.14-1.31.51-2.81.77-4.51.77s-3.24-.26-4.55-.77c-1.31-.51-2.4-1.23-3.27-2.14-.88-.91-1.53-1.98-1.98-3.22-.44-1.24-.67-2.59-.67-4.06V.63h5.46v15.02c0,.77.12,1.48.37,2.13s.59,1.22,1.03,1.7c.44.48.97.85,1.59,1.12.62.27,1.29.4,2.01.4s1.39-.13,2-.4c.61-.27,1.13-.64,1.57-1.12.44-.48.79-1.04,1.03-1.7.24-.65.37-1.37.37-2.13V.63h5.46v15.23Z"/>
      <path class="cls-1" d="M346.56,12.46l-8.19-11.83h6.86l5.29,8.68,5.08-8.68h6.62l-8.02,11.73,8.96,13.05h-6.86l-6.05-9.97-5.88,9.97h-6.47l8.68-12.95Z"/>
      <path class="cls-1" d="M81.79,46.69c-.44-.56-1.04-.97-1.8-1.24-.76-.27-1.48-.4-2.15-.4-.4,0-.81.05-1.23.14-.42.09-.82.24-1.19.44-.37.2-.68.46-.91.79-.23.33-.35.72-.35,1.19,0,.75.28,1.32.84,1.72.56.4,1.26.73,2.12,1.01.85.28,1.77.56,2.75.84.98.28,1.9.68,2.75,1.19.85.51,1.56,1.2,2.12,2.06.56.86.84,2.02.84,3.46s-.26,2.58-.77,3.61c-.51,1.03-1.21,1.88-2.08,2.55-.88.68-1.89,1.18-3.04,1.5-1.16.33-2.37.49-3.66.49-1.61,0-3.1-.25-4.48-.74-1.38-.49-2.66-1.28-3.85-2.38l3.88-4.27c.56.75,1.27,1.32,2.12,1.73.85.41,1.73.61,2.64.61.44,0,.89-.05,1.35-.16.46-.11.86-.26,1.23-.47.36-.21.65-.48.88-.8.22-.33.33-.71.33-1.16,0-.75-.29-1.34-.86-1.77-.57-.43-1.29-.8-2.15-1.1-.86-.3-1.8-.61-2.8-.91-1-.3-1.94-.71-2.8-1.22-.86-.51-1.58-1.19-2.15-2.03-.57-.84-.86-1.95-.86-3.33s.26-2.5.79-3.5c.52-1,1.22-1.84,2.1-2.52s1.88-1.18,3.03-1.52,2.32-.51,3.54-.51c1.4,0,2.75.2,4.06.59,1.31.4,2.48,1.06,3.53,2l-3.75,4.1Z"/>
      <path class="cls-1" d="M88.3,40.63h7.42l10.53,17.22h.07v-17.22h5.46v24.78h-7.14l-10.82-17.64h-.07v17.64h-5.46v-24.78Z"/>
      <path class="cls-1" d="M131.7,47.07c-.54-.65-1.2-1.16-1.98-1.5-.78-.35-1.69-.53-2.71-.53s-1.98.2-2.85.59c-.88.4-1.63.95-2.28,1.66s-1.14,1.56-1.5,2.54c-.36.98-.54,2.04-.54,3.19s.18,2.23.54,3.2c.36.97.86,1.81,1.49,2.52.63.71,1.37,1.27,2.22,1.66s1.77.59,2.75.59c1.12,0,2.11-.23,2.97-.7.86-.47,1.58-1.12,2.13-1.96l4.55,3.4c-1.05,1.47-2.38,2.55-3.99,3.25-1.61.7-3.27,1.05-4.97,1.05-1.94,0-3.72-.3-5.35-.91-1.63-.61-3.04-1.48-4.24-2.61-1.19-1.13-2.12-2.5-2.78-4.11s-1-3.41-1-5.39.33-3.78,1-5.39c.67-1.61,1.59-2.98,2.78-4.11,1.19-1.13,2.6-2,4.24-2.61,1.63-.61,3.42-.91,5.35-.91.7,0,1.43.06,2.19.19.76.13,1.51.33,2.24.61.74.28,1.44.65,2.12,1.12.68.47,1.28,1.04,1.82,1.72l-4.2,3.43Z"/>
      <path class="cls-1" d="M138.35,40.63h16.62v5.04h-11.17v5.04h10.32v5.04h-10.32v9.66h-5.46v-24.78Z"/>
      <path class="cls-1" d="M166.6,40.63h9.59c1.26,0,2.46.12,3.59.37,1.13.24,2.12.65,2.98,1.22.85.57,1.53,1.34,2.03,2.31.5.97.75,2.18.75,3.62,0,1.75-.46,3.24-1.37,4.46-.91,1.23-2.24,2-3.99,2.33l6.3,10.46h-6.54l-5.18-9.91h-2.69v9.91h-5.46v-24.78ZM172.06,50.88h3.22c.49,0,1.01-.02,1.56-.05.55-.04,1.04-.14,1.49-.32.44-.17.81-.45,1.1-.82.29-.37.44-.9.44-1.58,0-.63-.13-1.13-.38-1.5-.26-.37-.58-.66-.98-.86s-.85-.33-1.37-.4c-.51-.07-1.01-.11-1.5-.11h-3.57v5.63Z"/>
      <path class="cls-1" d="M188.16,40.63h16.83v5.04h-11.38v4.62h10.74v5.04h-10.74v5.04h12v5.04h-17.46v-24.78ZM196.49,33.77h7.14l-6.06,5.04h-4.62l3.53-5.04Z"/>
      <path class="cls-1" d="M220.92,46.69c-.44-.56-1.04-.97-1.8-1.24-.76-.27-1.48-.4-2.15-.4-.4,0-.81.05-1.23.14-.42.09-.82.24-1.19.44-.37.2-.68.46-.91.79-.23.33-.35.72-.35,1.19,0,.75.28,1.32.84,1.72.56.4,1.26.73,2.12,1.01.85.28,1.77.56,2.75.84.98.28,1.9.68,2.75,1.19.85.51,1.56,1.2,2.12,2.06.56.86.84,2.02.84,3.46s-.26,2.58-.77,3.61c-.51,1.03-1.21,1.88-2.08,2.55-.88.68-1.89,1.18-3.04,1.5-1.16.33-2.37.49-3.66.49-1.61,0-3.1-.25-4.48-.74-1.38-.49-2.66-1.28-3.85-2.38l3.88-4.27c.56.75,1.27,1.32,2.12,1.73.85.41,1.73.61,2.64.61.44,0,.89-.05,1.35-.16.46-.11.86-.26,1.23-.47.36-.21.65-.48.88-.8.22-.33.33-.71.33-1.16,0-.75-.29-1.34-.86-1.77-.57-.43-1.29-.8-2.15-1.1-.86-.3-1.8-.61-2.8-.91-1-.3-1.94-.71-2.8-1.22-.86-.51-1.58-1.19-2.15-2.03-.57-.84-.86-1.95-.86-3.33s.26-2.5.79-3.5c.52-1,1.22-1.84,2.1-2.52s1.88-1.18,3.03-1.52,2.32-.51,3.54-.51c1.4,0,2.75.2,4.06.59,1.31.4,2.48,1.06,3.53,2l-3.75,4.1Z"/>
      <path class="cls-1" d="M227.64,40.63h16.83v5.04h-11.38v4.62h10.74v5.04h-10.74v5.04h12v5.04h-17.46v-24.78Z"/>
      <path class="cls-1" d="M256.3,40.63h4.52l10.78,24.78h-6.16l-2.13-5.25h-9.62l-2.06,5.25h-6.02l10.71-24.78ZM258.4,47.84l-3.01,7.7h6.06l-3.04-7.7Z"/>
      <path class="cls-1" d="M293.65,55.86c0,1.47-.22,2.82-.67,4.06-.44,1.24-1.1,2.31-1.98,3.22-.88.91-1.97,1.62-3.27,2.14-1.31.51-2.81.77-4.51.77s-3.24-.26-4.55-.77c-1.31-.51-2.4-1.23-3.27-2.14-.88-.91-1.53-1.98-1.98-3.22-.44-1.24-.67-2.59-.67-4.06v-15.23h5.46v15.02c0,.77.12,1.48.37,2.13s.59,1.22,1.03,1.7c.44.48.97.85,1.59,1.12.62.27,1.29.4,2.01.4s1.39-.13,2-.4c.61-.27,1.13-.64,1.57-1.12.44-.48.79-1.04,1.03-1.7.24-.65.37-1.37.37-2.13v-15.02h5.46v15.23Z"/>
    </g>
  </g>
</svg>