<?xml version="1.0" encoding="UTF-8"?>
<svg id="Calque_2" data-name="Calque 2" xmlns="http://www.w3.org/2000/svg" viewBox="0 0 223.23 80.77">
  <defs>
    <style>
      .cls-1 {
        fill: #fff;
      }
    </style>
  </defs>
  <g id="Calque_1-2" data-name="Calque 1">
    <g>
      <path class="cls-1" d="M19.98,25.15c0,1.33-.21,2.61-.64,3.84-.43,1.23-1.06,2.32-1.9,3.25-.84.93-1.89,1.68-3.16,2.23-1.27.55-2.74.83-4.41.83-2.66,0-4.83-.62-6.53-1.85-1.69-1.23-2.81-3.2-3.35-5.88l5.6-1.33c.19,1.11.64,1.99,1.35,2.66.71.66,1.59,1,2.63,1,1.71,0,2.87-.58,3.49-1.73.62-1.15.93-2.74.93-4.77V.86h5.98v24.3Z"/>
      <path class="cls-1" d="M25.44,17.8c0-2.69.44-5.13,1.33-7.33.89-2.2,2.11-4.07,3.68-5.62,1.57-1.55,3.43-2.74,5.6-3.58C38.21.42,40.59,0,43.19,0c2.63-.03,5.03.36,7.21,1.16,2.18.81,4.06,1.99,5.65,3.54,1.58,1.55,2.82,3.42,3.7,5.6s1.33,4.62,1.33,7.31-.44,5.02-1.33,7.17c-.89,2.15-2.12,4-3.7,5.55-1.58,1.55-3.46,2.76-5.65,3.63-2.18.87-4.59,1.32-7.21,1.35-2.59,0-4.98-.42-7.14-1.26-2.17-.84-4.03-2.02-5.6-3.56-1.57-1.53-2.79-3.38-3.68-5.53-.89-2.15-1.33-4.54-1.33-7.17ZM31.7,17.42c0,1.8.28,3.46.83,4.98.55,1.52,1.34,2.83,2.35,3.94,1.01,1.11,2.22,1.98,3.63,2.61,1.41.63,2.98.95,4.72.95s3.32-.32,4.75-.95c1.42-.63,2.64-1.5,3.65-2.61,1.01-1.11,1.79-2.42,2.35-3.94.55-1.52.83-3.18.83-4.98,0-1.68-.28-3.24-.83-4.7-.55-1.45-1.34-2.73-2.35-3.82-1.01-1.09-2.23-1.95-3.65-2.56-1.42-.62-3.01-.93-4.75-.93s-3.31.31-4.72.93c-1.41.62-2.62,1.47-3.63,2.56-1.01,1.09-1.8,2.37-2.35,3.82-.55,1.46-.83,3.02-.83,4.7Z"/>
      <path class="cls-1" d="M93.68,22.12c0,2.03-.35,3.85-1.04,5.48-.7,1.63-1.65,3.01-2.85,4.15-1.2,1.14-2.63,2.02-4.27,2.63-1.65.62-3.43.93-5.36.93s-3.72-.31-5.36-.93c-1.65-.62-3.08-1.49-4.29-2.63-1.22-1.14-2.17-2.52-2.85-4.15-.68-1.63-1.02-3.46-1.02-5.48V.86h5.98v21.07c0,.82.13,1.68.38,2.59.25.9.67,1.73,1.26,2.49.58.76,1.36,1.38,2.33,1.87.96.49,2.16.74,3.58.74s2.62-.25,3.58-.74c.96-.49,1.74-1.12,2.33-1.87.58-.76,1-1.59,1.26-2.49.25-.9.38-1.76.38-2.59V.86h5.98v21.26Z"/>
      <path class="cls-1" d="M101.03.86h11.67c1.61,0,3.17.15,4.67.45,1.5.3,2.84.81,4.01,1.54,1.17.73,2.1,1.71,2.8,2.94.7,1.23,1.04,2.8,1.04,4.7,0,2.44-.67,4.48-2.02,6.12-1.34,1.65-3.27,2.64-5.77,2.99l8.92,14.85h-7.21l-7.78-14.24h-4.37v14.24h-5.98V.86ZM111.66,15.09c.85,0,1.71-.04,2.56-.12.85-.08,1.64-.27,2.35-.57.71-.3,1.29-.76,1.73-1.38.44-.62.66-1.48.66-2.59,0-.98-.21-1.77-.62-2.37-.41-.6-.95-1.05-1.61-1.35-.66-.3-1.4-.5-2.21-.59-.81-.09-1.59-.14-2.35-.14h-5.17v9.11h4.65Z"/>
      <path class="cls-1" d="M130.93.86h7.93l16.28,24.96h.09V.86h5.98v33.6h-7.59l-16.61-25.77h-.09v25.77h-5.98V.86Z"/>
      <path class="cls-1" d="M179.57.86h5.17l14.47,33.6h-6.83l-3.13-7.69h-14.57l-3.04,7.69h-6.69L179.57.86ZM187.17,21.64l-5.17-13.67-5.27,13.67h10.44Z"/>
      <path class="cls-1" d="M202.97.86h5.98v28.19h14.28v5.41h-20.26V.86Z"/>
      <path class="cls-1" d="M70.52,53.53c-.63-.92-1.48-1.59-2.54-2.02-1.06-.43-2.18-.64-3.35-.64-.7,0-1.37.08-2.02.24-.65.16-1.23.41-1.76.76-.52.35-.94.8-1.26,1.35-.32.55-.47,1.21-.47,1.97,0,1.14.39,2.01,1.19,2.61.79.6,1.77,1.12,2.94,1.57,1.17.44,2.45.87,3.84,1.28,1.39.41,2.67.98,3.84,1.71,1.17.73,2.15,1.69,2.94,2.9.79,1.2,1.19,2.8,1.19,4.79,0,1.8-.33,3.38-1,4.72-.66,1.35-1.56,2.46-2.68,3.35-1.12.89-2.43,1.55-3.92,1.99-1.49.44-3.05.66-4.7.66-2.09,0-4.1-.35-6.03-1.04-1.93-.7-3.59-1.87-4.98-3.51l4.51-4.37c.73,1.11,1.68,1.97,2.87,2.59,1.19.62,2.44.93,3.77.93.7,0,1.39-.1,2.09-.28.7-.19,1.33-.47,1.9-.85.57-.38,1.03-.86,1.38-1.45.35-.58.52-1.26.52-2.02,0-1.23-.4-2.18-1.19-2.85-.79-.66-1.77-1.23-2.94-1.69-1.17-.46-2.45-.89-3.84-1.3-1.39-.41-2.67-.97-3.84-1.69-1.17-.71-2.15-1.66-2.94-2.85-.79-1.19-1.19-2.78-1.19-4.77,0-1.74.36-3.24,1.07-4.51.71-1.27,1.64-2.32,2.8-3.16,1.15-.84,2.47-1.46,3.96-1.87,1.49-.41,3.01-.62,4.56-.62,1.77,0,3.49.27,5.15.81,1.66.54,3.16,1.42,4.48,2.66l-4.37,4.6Z"/>
      <path class="cls-1" d="M81.29,46.32h22.26v5.41h-16.28v8.26h15.42v5.41h-15.42v9.11h17.13v5.41h-23.11v-33.6ZM94.53,37.21h6.45l-6.69,6.83h-4.46l4.7-6.83Z"/>
      <path class="cls-1" d="M133.35,54.2c-1.23-1.33-2.43-2.21-3.58-2.66-1.16-.44-2.32-.66-3.49-.66-1.74,0-3.31.31-4.72.93-1.41.62-2.62,1.47-3.63,2.56-1.01,1.09-1.8,2.37-2.35,3.82-.55,1.46-.83,3.02-.83,4.7,0,1.8.28,3.46.83,4.98.55,1.52,1.34,2.83,2.35,3.94,1.01,1.11,2.22,1.98,3.63,2.61,1.41.63,2.98.95,4.72.95,1.36,0,2.68-.32,3.96-.97,1.28-.65,2.48-1.68,3.58-3.11l4.94,3.51c-1.52,2.09-3.37,3.61-5.55,4.56-2.18.95-4.51,1.42-6.98,1.42-2.59,0-4.98-.42-7.14-1.26-2.17-.84-4.03-2.02-5.6-3.56-1.57-1.53-2.79-3.38-3.68-5.53-.89-2.15-1.33-4.54-1.33-7.17s.44-5.13,1.33-7.33c.89-2.2,2.11-4.07,3.68-5.62,1.57-1.55,3.43-2.74,5.6-3.58,2.17-.84,4.55-1.26,7.14-1.26,2.28,0,4.39.4,6.34,1.21,1.95.81,3.76,2.18,5.43,4.1l-4.65,3.42Z"/>
      <path class="cls-1" d="M169.7,67.58c0,2.03-.35,3.85-1.04,5.48-.7,1.63-1.65,3.01-2.85,4.15-1.2,1.14-2.63,2.02-4.27,2.63-1.65.62-3.43.93-5.36.93s-3.72-.31-5.36-.93c-1.65-.62-3.08-1.49-4.29-2.63-1.22-1.14-2.17-2.52-2.85-4.15-.68-1.63-1.02-3.46-1.02-5.48v-21.26h5.98v21.07c0,.82.13,1.68.38,2.59.25.9.67,1.73,1.26,2.49.58.76,1.36,1.38,2.33,1.87.96.49,2.16.74,3.58.74s2.62-.25,3.58-.74c.96-.49,1.74-1.12,2.33-1.87.58-.76,1-1.59,1.26-2.49.25-.9.38-1.76.38-2.59v-21.07h5.98v21.26Z"/>
    </g>
  </g>
</svg>