<?xml version="1.0" encoding="UTF-8"?>
<svg id="Calque_2" data-name="Calque 2" xmlns="http://www.w3.org/2000/svg" viewBox="0 0 142.09 42.88">
  <defs>
    <style>
      .cls-1 {
        fill: #571216;
      }

      .cls-2 {
        fill: #444a07;
      }
    </style>
  </defs>
  <g id="Calque_1-2" data-name="Calque 1">
    <g>
      <path class="cls-2" d="M15.38.35v5.02H6.3v3.99h6.69v4.79h-6.69v8.88H0V.35h15.38Z"/>
      <path class="cls-2" d="M21.29,21.76c-1.78-1-3.19-2.38-4.23-4.15-1.04-1.77-1.56-3.77-1.56-6s.52-4.23,1.56-6c1.04-1.77,2.45-3.15,4.23-4.13C23.07.49,25.03,0,27.15,0s4.1.49,5.87,1.48c1.77.99,3.17,2.36,4.2,4.13,1.03,1.77,1.54,3.77,1.54,6s-.51,4.23-1.54,6-2.43,3.15-4.21,4.15c-1.78,1-3.73,1.5-5.85,1.5s-4.07-.5-5.85-1.5ZM30.96,15.83c.93-1.05,1.4-2.46,1.4-4.21s-.47-3.22-1.4-4.26c-.93-1.04-2.2-1.56-3.81-1.56s-2.91.52-3.83,1.56c-.92,1.04-1.38,2.46-1.38,4.26s.46,3.19,1.38,4.23c.92,1.04,2.2,1.56,3.83,1.56s2.88-.53,3.81-1.58Z"/>
      <path class="cls-2" d="M46.13,18.21h7.04v4.83h-13.35V.35h6.3v17.85Z"/>
      <path class="cls-2" d="M60.15,18.21h7.04v4.83h-13.35V.35h6.3v17.85Z"/>
      <path class="cls-2" d="M88.82,5.61c-1.03-1.77-2.43-3.15-4.2-4.13-1.77-.99-3.73-1.48-5.87-1.48s-4.08.49-5.86,1.48c-1.78.99-3.19,2.36-4.23,4.13-1.04,1.77-1.56,3.77-1.56,6s.52,4.23,1.56,6c1.03,1.75,2.41,3.12,4.16,4.11.02.01.05.03.07.04.4.22.8.42,1.22.59.06.03.12.05.18.07.06-.08.12-.16.19-.23h0c.78-.92,1.57-1.37,2.41-1.37.96,0,1.93.73,1.93,2.36,0,.02,0,.05,0,.07,1.09,0,2.13-.14,3.12-.41-.05-.15-.05-.32,0-.48.33-1.02.85-1.55,1.54-1.55.53,0,1.06.3,1.35.76,0,.01.02.03.02.04,1.66-.98,2.98-2.32,3.97-4,1.03-1.77,1.54-3.77,1.54-6s-.51-4.23-1.54-6ZM82.56,15.83c-.93,1.05-2.2,1.58-3.81,1.58s-2.91-.52-3.83-1.56c-.92-1.04-1.38-2.45-1.38-4.23s.46-3.22,1.38-4.26c.92-1.04,2.2-1.56,3.83-1.56s2.88.52,3.81,1.56c.93,1.04,1.4,2.46,1.4,4.26s-.47,3.16-1.4,4.21Z"/>
      <path class="cls-2" d="M116.54.35l-2.64,15.38-3.47-15.38h-6.92l-3.57,15.5-2.64-15.5h-6.82l5.5,22.68h2.72s0-.06.01-.1c.09-.7.17-1.22.26-1.55,0-.02.01-.04.02-.06.23-.63.76-.99,1.45-.99,1,0,1.76.64,1.76,1.5,0,.02,0,.04,0,.06.62-.54,1.2-.81,1.74-.81.02,0,.04,0,.06,0,0,0,.01,0,.02,0,.05,0,.1,0,.15.01l2.74-11.96,3.09,13.75s.09-.03.14-.04c.06-.09.13-.19.19-.27,0,0,0,0,0-.01,0,0,0,0,0,0h0s0,0,0,0c.8-1.08,1.92-1.69,3.07-1.69.55,0,1.04.13,1.48.38.97.07,1.55.7,1.55,1.72,0,.03,0,.05,0,.08h1.33L123.36.35h-6.82Z"/>
    </g>
    <g>
      <path class="cls-1" d="M82.46,23.75c-.08,0-.17,0-.28,0l-.2.11c-.92,1.24-2.54,2.81-3.67,2.81-.46,0-.61-.32-.61-.9,0-.72.17-1.65.26-2.14,0-.09.03-.2.03-.29,0-.03,0-.07,0-.09-1.01-.06-1.97-.23-2.9-.52-.41.48-.77,1.05-1.07,1.57-.12-.92-.49-1.76-1.33-1.76-.93,0-1.73.9-2.34,1.79.09-.66.12-1.3.26-1.85-.09-.43-.41-.64-.72-.64s-.64.17-.72.43c-.32,1.82-.35,3.44-.38,5.06v.55c.14.23.49.43.75.43.32,0,.58-.2.61-.55.09-.84,1.65-3.73,2.31-3.73.11,0,.17.26.17.81s-.06,1.07-.09,1.53c-.03.46-.06.95-.06,1.39s.2.55.52.55c.35,0,.81-.32.95-.46.46-1.47,1.27-3.61,2.49-4.45,0,0,.03,0,.06-.03h.03v.38c0,.23-.03.58-.06.89-.03.38-.09.75-.09,1.07,0,1.07.32,2.05,1.79,2.05s3.05-1.28,4.17-2.55c.28-.31.53-.63.74-.92,0-.03.03-.14.03-.17,0-.17-.13-.33-.68-.37Z"/>
      <path class="cls-1" d="M78.01,23.19s-.02.03-.02.05c-1.01-.06-1.97-.23-2.9-.52.52-.62,1.13-1.09,1.79-1.09s1.13.61,1.13,1.56Z"/>
      <path class="cls-1" d="M93.66,23.45c-.2,0-.35.06-.43.17-1.48,1.16-3.44,1.73-5.52,2.17l.09-.69c.11-1.07.23-2.08.23-3.12,0-.43-.35-.58-.69-.58-.32,0-.61.14-.72.35-.64,1.42-1.94,4.05-2.72,4.05-.14,0-.17-.64-.17-.98,0-.9.29-1.91.52-2.6-.02-.07-.05-.14-.09-.2-.47.24-.95.44-1.44.61-.11.35-.2.75-.25,1.14-.07.48-.1.92-.1,1.17,0,.1,0,.2,0,.29.04.89.29,1.38.69,1.59-1.62.43-3.07.93-4.31,1.65-3.47,2.23-5.26,6.33-5.26,9.49,0,2.31,1.07,4.94,3.73,4.94,1.13,0,2.63-.63,4.13-1.79,4.25-3.47,5.78-9.11,6.25-14.08,2.23-.46,4.63-1.1,6.5-2.51.17-.17.26-.35.26-.49,0-.32-.38-.55-.69-.55ZM85.3,31.78c-.84,3.27-2.4,6.42-4.83,8.47-1.36,1.01-2.43,1.53-3.27,1.53-1.79,0-2.29-2.29-2.29-3.7,0-2.86,1.56-6.74,4.57-8.73,1.73-1.01,4.11-1.53,6.65-2.08-.2,1.39-.4,2.98-.84,4.51ZM86.26,26.11l-1.07.2c.43-.34.81-.81,1.19-1.3-.09.69-.03.55-.11,1.1Z"/>
      <path class="cls-1" d="M84.15,22c-.47.24-.95.44-1.44.61.18-.56.43-.99.77-.99.25,0,.52.14.67.38Z"/>
      <path class="cls-1" d="M110.64,23.6s-.06,0-.1,0c-.2,0-.35.06-.46.17-.61.61-3.24,2.57-4.45,2.57-.32,0-.49-.06-.49-1.19,0-.32.03-.66.03-.93v-.32c0-1.33-.39-1.99-1.16-2.02l-.26,1.14h-1.55c-.4.44-.8.98-1.16,1.57.04-.52.1-1.08.16-1.57h-1.68c-.22,1.77-.39,4.46-.39,5.94v.09c0,.9,0,1.33.72,1.33.35,0,.64-.2.72-.55.23-2.31,2.54-6.04,3.21-6.19-.09.03-.06.17-.06.26v.92c0,1.48.4,2.6,1.99,2.6,1.08,0,3.2-1.14,4.48-2.1.64-.48,1.07-.92,1.07-1.16,0-.4-.25-.55-.62-.57Z"/>
      <path class="cls-1" d="M104,21.89l-.26,1.14h-1.55c.63-.7,1.26-1.15,1.76-1.15.02,0,.03,0,.05,0Z"/>
      <path class="cls-1" d="M101.41,21.83c-.07.24-.15.68-.22,1.2h-1.68c.08-.62.16-1.14.24-1.44.12-.32.35-.46.69-.46.46,0,.96.23.96.69Z"/>
      <path class="cls-1" d="M120.32,23.48s-.08,0-.12,0c-.14.02-.26.08-.37.19l-.03.03c-.43.58-2.26,2.4-3.44,2.4-.58,0-.93-.55-.93-1.24,0-.32.03-.66.11-.98.08-.29.11-.56.11-.85h-1.59l.03.1-.11-.09c-.14.84-.87,2.92-1.76,2.92-.37,0-.52-.35-.52-.72,0-.76.49-1.81,1.18-2.21h-1.88c-.14.18-.25.37-.36.56-.28.54-.45,1.14-.45,1.73h0c0,1.36.81,1.99,1.85,1.99.66,0,1.53-.43,2.2-1.04.43.78,1.01.98,1.79.98,1.3,0,2.91-.97,4.02-1.96.35-.31.65-.62.87-.91.12-.14.12-.23.12-.32,0-.34-.35-.61-.72-.61ZM113.96,23.03s.01,0,.02.01h0s-.02-.01-.02-.01Z"/>
      <path class="cls-1" d="M115.66,22.96s0,.05,0,.08h-1.59l-.05-.16c0,.08-.03.09-.03.16h-.02c-.2-.11-.39-.16-.53-.16-.2,0-.38.06-.56.16h-1.88c.6-.81,1.48-1.38,2.44-1.38.46,0,.87.12,1.24.38h.06c.72,0,.93.38.93.93Z"/>
      <path class="cls-1" d="M133.39,23.74c.78,0,.95.17.95.38,0,.03-.03.14-.03.17-1.07,1.47-3.09,3.47-4.92,3.47-1.47,0-1.79-.98-1.79-2.05,0-.32.06-.69.09-1.07.03-.32.06-.66.06-.9v-.38s-.03,0-.03,0c-.03.03-.06.03-.06.03-1.21.84-2.02,2.98-2.49,4.45-.14.14-.61.46-.95.46-.32,0-.52-.12-.52-.55s.03-.93.06-1.39.09-.98.09-1.53-.06-.81-.17-.81c-.67,0-2.23,2.89-2.31,3.73-.03.35-.29.55-.61.55-.26,0-.61-.2-.75-.43v-.55c.03-1.62.06-3.24.38-5.06.09-.26.41-.43.72-.43s.64.2.72.64c-.14.55-.17,1.19-.26,1.85.61-.9,1.42-1.79,2.34-1.79.84,0,1.21.84,1.33,1.76.69-1.18,1.68-2.66,2.86-2.66.69,0,1.13.61,1.13,1.56-.03.03-.03.09-.03.14,0,.09-.03.2-.03.29-.09.49-.26,1.42-.26,2.14,0,.58.14.9.61.9,1.13,0,2.75-1.56,3.67-2.81l.2-.12Z"/>
      <path class="cls-1" d="M135.12,24.55c.14,1.01.81,1.85,1.82,1.85,1.56,0,3.04-1.68,3.9-2.78.17-.17.35-.26.52-.26.38,0,.72.32.72.78-1.33,1.65-3.12,3.35-5.15,3.35-2.05,0-3.24-1.68-3.24-3.41,0-1.62,1.13-3.24,2.83-3.24,1.19,0,1.71.72,1.71,1.45,0,1.59-1.91,2.26-3.12,2.26ZM135.09,23.74c0-.14,0-.23.03-.29h-.29s.26.29.26.29ZM135.12,23.45c.81-.09,1.85-.52,1.85-1.21,0-.14-.12-.2-.38-.2-.72,0-1.27.72-1.47,1.42Z"/>
    </g>
  </g>
</svg>