<?xml version="1.0" encoding="UTF-8"?>
<svg id="Calque_2" data-name="Calque 2" xmlns="http://www.w3.org/2000/svg" viewBox="0 0 222.27 67.07">
  <defs>
    <style>
      .cls-1 {
        fill: #6c1f21;
      }

      .cls-2 {
        fill: #e6c28f;
      }
    </style>
  </defs>
  <g id="Calque_1-2" data-name="Calque 1">
    <g>
      <path class="cls-2" d="M24.05.55v7.85h-14.19v6.24h10.47v7.5h-10.47v13.89H0V.55h24.05Z"/>
      <path class="cls-2" d="M33.31,34.04c-2.78-1.56-4.99-3.72-6.62-6.49-1.63-2.77-2.44-5.9-2.44-9.38s.81-6.62,2.44-9.38c1.63-2.77,3.83-4.92,6.62-6.47C36.09.77,39.15,0,42.47,0s6.42.77,9.18,2.31c2.77,1.54,4.96,3.7,6.57,6.47,1.61,2.77,2.42,5.9,2.42,9.38s-.81,6.62-2.42,9.38-3.81,4.93-6.59,6.49c-2.78,1.56-5.84,2.34-9.16,2.34s-6.37-.78-9.16-2.34ZM48.43,24.76c1.46-1.64,2.19-3.84,2.19-6.59s-.73-5.04-2.19-6.67c-1.46-1.63-3.45-2.44-5.96-2.44s-4.55.81-5.99,2.44c-1.44,1.63-2.16,3.85-2.16,6.67s.72,4.99,2.16,6.62c1.44,1.63,3.44,2.44,5.99,2.44s4.5-.82,5.96-2.47Z"/>
      <path class="cls-2" d="M72.16,28.48h11.02v7.55h-20.88V.55h9.86v27.93Z"/>
      <path class="cls-2" d="M94.1,28.48h11.02v7.55h-20.88V.55h9.86v27.93Z"/>
      <path class="cls-2" d="M138.93,8.78c-1.61-2.77-3.8-4.92-6.57-6.47-2.77-1.54-5.83-2.31-9.18-2.31s-6.38.77-9.16,2.31c-2.78,1.55-4.99,3.7-6.62,6.47-1.62,2.77-2.44,5.9-2.44,9.38s.81,6.62,2.44,9.38c1.61,2.73,3.78,4.87,6.51,6.43.04.02.07.04.11.06.62.35,1.26.66,1.91.93.09.04.19.08.28.12.1-.12.19-.25.29-.37h0c1.22-1.44,2.45-2.15,3.77-2.15,1.5,0,3.02,1.14,3.02,3.7,0,.04,0,.08,0,.11,1.7,0,3.33-.22,4.89-.64-.08-.24-.08-.5,0-.75.51-1.6,1.32-2.42,2.41-2.42.83,0,1.66.46,2.11,1.18.01.02.03.04.03.06,2.6-1.54,4.67-3.63,6.2-6.26,1.61-2.77,2.42-5.89,2.42-9.38s-.81-6.62-2.42-9.38ZM129.14,24.76c-1.46,1.65-3.45,2.47-5.96,2.47s-4.55-.81-5.99-2.44c-1.44-1.62-2.16-3.83-2.16-6.62s.72-5.04,2.16-6.67c1.44-1.62,3.44-2.44,5.99-2.44s4.5.82,5.96,2.44c1.46,1.63,2.19,3.85,2.19,6.67s-.73,4.95-2.19,6.59Z"/>
      <path class="cls-2" d="M182.3.55l-4.13,24.05-5.43-24.05h-10.82l-5.59,24.25-4.13-24.25h-10.67l8.6,35.47h4.26c0-.05.01-.1.02-.15.13-1.1.27-1.92.41-2.43.01-.03.02-.07.04-.1.36-.98,1.19-1.55,2.26-1.55,1.57,0,2.75,1.01,2.75,2.34,0,.03,0,.06,0,.1.97-.84,1.88-1.27,2.73-1.27.04,0,.06,0,.09,0,.01,0,.02,0,.03,0,.08,0,.16,0,.24.02l4.29-18.71,4.83,21.51c.07-.03.14-.05.22-.07.1-.15.2-.29.3-.43,0,0,0-.01.01-.02,0,0,0-.01.01-.01h0s0,0,0,0c1.25-1.68,3-2.65,4.81-2.65.86,0,1.62.2,2.32.6,1.52.11,2.42,1.1,2.42,2.7,0,.04,0,.08,0,.12h2.08L192.97.55h-10.67Z"/>
    </g>
    <g>
      <path class="cls-1" d="M128.98,37.15c-.13-.01-.27-.01-.43-.01l-.32.18c-1.44,1.94-3.98,4.39-5.74,4.39-.72,0-.95-.5-.95-1.41,0-1.13.27-2.58.41-3.35,0-.14.05-.32.05-.45,0-.05,0-.1.01-.15-1.57-.09-3.09-.36-4.54-.82-.64.75-1.2,1.65-1.67,2.46-.18-1.44-.77-2.76-2.08-2.76-1.45,0-2.71,1.4-3.67,2.8.14-1.04.18-2.03.41-2.89-.14-.68-.64-1-1.13-1s-1,.27-1.13.68c-.5,2.85-.55,5.38-.59,7.91v.86c.23.36.77.68,1.18.68.5,0,.91-.32.95-.86.14-1.31,2.58-5.84,3.62-5.84.18,0,.27.41.27,1.27s-.09,1.67-.14,2.4c-.05.72-.09,1.49-.09,2.17s.32.86.81.86c.54,0,1.27-.5,1.49-.73.73-2.3,1.99-5.65,3.89-6.97,0,0,.04,0,.09-.04h.04v.59c0,.36-.04.9-.09,1.4-.04.59-.13,1.18-.13,1.67,0,1.67.5,3.21,2.8,3.21s4.77-2,6.52-3.99c.44-.49.83-.98,1.16-1.44,0-.04.05-.23.05-.27,0-.27-.2-.51-1.06-.57Z"/>
      <path class="cls-1" d="M122.03,36.27s-.03.05-.03.08c-1.57-.09-3.09-.36-4.54-.82.82-.97,1.76-1.7,2.81-1.7s1.76.95,1.76,2.44Z"/>
      <path class="cls-1" d="M146.51,36.68c-.32,0-.55.09-.68.27-2.31,1.81-5.38,2.71-8.64,3.39l.14-1.09c.18-1.67.36-3.26.36-4.89,0-.68-.55-.9-1.09-.9-.5,0-.95.23-1.13.54-1,2.22-3.03,6.33-4.25,6.33-.23,0-.27-1-.27-1.54,0-1.4.45-2.99.82-4.07-.03-.12-.08-.22-.13-.32-.73.37-1.48.69-2.25.95-.18.55-.31,1.18-.39,1.78-.11.75-.16,1.44-.16,1.84,0,.16,0,.31.01.45.07,1.39.46,2.16,1.07,2.49-2.53.68-4.79,1.45-6.74,2.58-5.43,3.49-8.23,9.91-8.23,14.84,0,3.62,1.67,7.73,5.84,7.73,1.76,0,4.12-.99,6.47-2.8,6.65-5.43,9.05-14.25,9.77-22.03,3.48-.72,7.24-1.72,10.18-3.93.27-.27.41-.55.41-.77,0-.5-.59-.86-1.09-.86ZM133.44,49.7c-1.31,5.11-3.76,10.04-7.56,13.26-2.13,1.58-3.8,2.4-5.11,2.4-2.81,0-3.58-3.58-3.58-5.79,0-4.48,2.44-10.54,7.15-13.66,2.71-1.59,6.42-2.4,10.4-3.26-.31,2.17-.63,4.66-1.31,7.06ZM134.93,40.84l-1.67.32c.68-.54,1.27-1.27,1.85-2.03-.14,1.09-.04.86-.18,1.72Z"/>
      <path class="cls-1" d="M131.63,34.42c-.73.37-1.48.69-2.25.95.28-.87.67-1.54,1.21-1.54.39,0,.82.23,1.04.59Z"/>
      <path class="cls-1" d="M173.07,36.91c-.05,0-.1,0-.15,0-.32,0-.54.09-.73.27-.95.95-5.06,4.03-6.97,4.03-.5,0-.77-.09-.77-1.85,0-.5.05-1.04.05-1.45v-.5c0-2.08-.61-3.12-1.82-3.16l-.41,1.79h-2.42c-.62.69-1.24,1.53-1.82,2.46.06-.81.15-1.69.25-2.46h-2.62c-.35,2.77-.61,6.98-.61,9.29v.14c0,1.4,0,2.08,1.13,2.08.54,0,1-.32,1.13-.86.36-3.62,3.98-9.45,5.02-9.68-.14.04-.09.27-.09.41v1.44c0,2.31.63,4.07,3.12,4.07,1.69,0,5-1.78,7.01-3.29,1-.75,1.67-1.44,1.67-1.82,0-.63-.38-.87-.98-.9Z"/>
      <path class="cls-1" d="M162.69,34.24l-.41,1.79h-2.42c.99-1.1,1.97-1.79,2.75-1.79.03,0,.05,0,.08,0Z"/>
      <path class="cls-1" d="M158.63,34.15c-.12.37-.23,1.07-.34,1.88h-2.62c.12-.98.25-1.78.38-2.25.18-.5.55-.72,1.09-.72.73,0,1.5.36,1.5,1.09Z"/>
      <path class="cls-1" d="M188.21,36.72c-.06,0-.13,0-.18.01-.23.03-.41.12-.59.3l-.04.05c-.68.9-3.53,3.75-5.38,3.75-.91,0-1.45-.86-1.45-1.94,0-.5.05-1.04.18-1.54.13-.46.18-.88.18-1.33h-2.49l.05.15-.18-.13c-.23,1.31-1.36,4.57-2.76,4.57-.59,0-.81-.55-.81-1.13,0-1.19.77-2.83,1.84-3.45h-2.94c-.21.28-.4.57-.56.88-.44.84-.7,1.78-.7,2.71h0c0,2.13,1.27,3.12,2.9,3.12,1.04,0,2.4-.68,3.44-1.63.68,1.22,1.59,1.54,2.8,1.54,2.03,0,4.55-1.52,6.29-3.06.55-.49,1.01-.97,1.36-1.42.18-.23.18-.36.18-.5,0-.54-.55-.95-1.13-.95ZM178.27,36.03s.02.01.03.02v-.02h-.03Z"/>
      <path class="cls-1" d="M180.93,35.91s0,.08,0,.12h-2.49l-.08-.26c0,.13-.04.14-.05.26h-.03c-.31-.17-.61-.26-.83-.26-.31,0-.6.09-.87.26h-2.94c.94-1.27,2.32-2.16,3.81-2.16.72,0,1.36.18,1.94.59h.09c1.13,0,1.45.59,1.45,1.45Z"/>
      <path class="cls-1" d="M208.65,37.13c1.22,0,1.49.27,1.49.59,0,.04-.05.23-.05.27-1.67,2.31-4.84,5.43-7.69,5.43-2.31,0-2.8-1.54-2.8-3.21,0-.5.09-1.09.14-1.67.05-.5.09-1.04.09-1.4v-.59s-.05,0-.05,0c-.05.05-.09.05-.09.05-1.9,1.31-3.17,4.66-3.89,6.97-.23.23-.95.72-1.49.72-.5,0-.81-.18-.81-.86s.05-1.45.09-2.17.14-1.54.14-2.4-.09-1.27-.27-1.27c-1.04,0-3.48,4.52-3.62,5.84-.05.54-.45.86-.95.86-.41,0-.95-.32-1.18-.68v-.86c.05-2.53.09-5.07.59-7.92.14-.41.63-.68,1.13-.68s.99.32,1.13,1c-.23.86-.27,1.86-.41,2.89.95-1.4,2.22-2.8,3.66-2.8,1.31,0,1.9,1.31,2.08,2.76,1.09-1.85,2.62-4.16,4.48-4.16,1.09,0,1.76.95,1.76,2.44-.05.04-.05.14-.05.23,0,.14-.05.32-.05.45-.14.77-.41,2.22-.41,3.35,0,.91.23,1.4.95,1.4,1.76,0,4.3-2.44,5.74-4.39l.32-.18Z"/>
      <path class="cls-1" d="M211.37,38.4c.23,1.58,1.27,2.89,2.85,2.89,2.44,0,4.75-2.62,6.11-4.34.27-.27.54-.41.81-.41.59,0,1.13.5,1.13,1.22-2.08,2.58-4.89,5.25-8.05,5.25s-5.07-2.62-5.07-5.34c0-2.53,1.76-5.07,4.43-5.07,1.85,0,2.67,1.13,2.67,2.26,0,2.49-2.99,3.53-4.89,3.53ZM211.32,37.13c0-.23,0-.36.05-.45h-.45s.41.45.41.45ZM211.37,36.68c1.27-.14,2.89-.81,2.89-1.9,0-.23-.18-.32-.59-.32-1.13,0-1.99,1.13-2.31,2.22Z"/>
    </g>
  </g>
</svg>