<?xml version="1.0" encoding="UTF-8"?>
<svg id="Calque_2" data-name="Calque 2" xmlns="http://www.w3.org/2000/svg" viewBox="0 0 210.21 63.43">
  <defs>
    <style>
      .cls-1 {
        fill: #fff;
      }
    </style>
  </defs>
  <g id="Calque_1-2" data-name="Calque 1">
    <g>
      <path class="cls-1" d="M22.75.52v7.42h-13.42v5.9h9.9v7.09h-9.9v13.14H0V.52h22.75Z"/>
      <path class="cls-1" d="M31.5,32.19c-2.63-1.48-4.72-3.52-6.26-6.14-1.54-2.62-2.31-5.58-2.31-8.88s.77-6.26,2.31-8.88c1.54-2.62,3.62-4.66,6.26-6.12C34.14.73,37.02,0,40.17,0s6.07.73,8.69,2.19c2.62,1.46,4.69,3.5,6.21,6.12,1.52,2.62,2.28,5.58,2.28,8.88s-.76,6.26-2.28,8.88-3.6,4.66-6.23,6.14c-2.63,1.48-5.52,2.21-8.66,2.21s-6.03-.74-8.66-2.21ZM45.8,23.41c1.38-1.55,2.07-3.63,2.07-6.23s-.69-4.77-2.07-6.31c-1.38-1.54-3.26-2.31-5.64-2.31s-4.3.77-5.66,2.31c-1.36,1.54-2.05,3.64-2.05,6.31s.68,4.72,2.05,6.26c1.36,1.54,3.25,2.31,5.66,2.31s4.26-.78,5.64-2.33Z"/>
      <path class="cls-1" d="M68.24,26.94h10.42v7.14h-19.75V.52h9.33v26.41Z"/>
      <path class="cls-1" d="M88.99,26.94h10.42v7.14h-19.75V.52h9.33v26.41Z"/>
      <path class="cls-1" d="M131.4,8.3c-1.52-2.62-3.59-4.65-6.21-6.12-2.62-1.46-5.51-2.19-8.69-2.19s-6.03.73-8.66,2.19c-2.63,1.46-4.72,3.5-6.26,6.12-1.54,2.62-2.3,5.58-2.3,8.88s.77,6.26,2.3,8.88c1.52,2.58,3.57,4.61,6.16,6.08.03.02.07.04.1.06.59.33,1.19.62,1.81.88.09.04.18.07.27.11.09-.12.18-.23.28-.35h0c1.16-1.37,2.32-2.03,3.56-2.03,1.42,0,2.86,1.08,2.86,3.5,0,.03,0,.07,0,.11,1.61,0,3.15-.21,4.62-.61-.07-.22-.07-.47,0-.71.48-1.52,1.25-2.29,2.28-2.29.79,0,1.57.44,2,1.12.01.02.02.04.03.06,2.46-1.45,4.42-3.43,5.87-5.92,1.52-2.62,2.28-5.57,2.28-8.88s-.76-6.26-2.28-8.88ZM122.14,23.41c-1.38,1.56-3.26,2.33-5.64,2.33s-4.3-.77-5.66-2.31c-1.37-1.54-2.05-3.62-2.05-6.26s.68-4.77,2.05-6.31c1.36-1.54,3.25-2.31,5.66-2.31s4.26.77,5.64,2.31c1.38,1.54,2.07,3.64,2.07,6.31s-.69,4.68-2.07,6.23Z"/>
      <path class="cls-1" d="M172.42.52l-3.9,22.75-5.14-22.75h-10.23l-5.28,22.94-3.9-22.94h-10.09l8.14,33.55h4.02s.01-.1.02-.14c.13-1.04.25-1.81.39-2.3.01-.03.02-.06.03-.1.34-.93,1.12-1.46,2.14-1.46,1.49,0,2.6.95,2.6,2.22,0,.03,0,.06,0,.09.91-.79,1.78-1.2,2.58-1.2.03,0,.06,0,.09,0,.01,0,.02,0,.03,0,.07,0,.15,0,.23.02l4.06-17.69,4.57,20.34c.07-.03.14-.05.2-.06.09-.14.19-.28.29-.4,0,0,0-.01.01-.02,0,0,0-.01.01-.01h0s0,0,0,0c1.18-1.59,2.84-2.51,4.55-2.51.81,0,1.53.19,2.2.57,1.44.1,2.29,1.04,2.29,2.55,0,.04,0,.07,0,.11h1.97L182.5.52h-10.09Z"/>
    </g>
    <g>
      <path class="cls-1" d="M121.99,35.13c-.12-.01-.26-.01-.41-.01l-.3.17c-1.37,1.84-3.76,4.15-5.43,4.15-.68,0-.9-.47-.9-1.33,0-1.07.26-2.44.38-3.16,0-.13.04-.3.04-.43,0-.05,0-.1.01-.14-1.49-.08-2.92-.34-4.29-.78-.6.71-1.13,1.56-1.58,2.33-.17-1.37-.73-2.61-1.97-2.61-1.37,0-2.57,1.33-3.47,2.65.13-.98.17-1.92.39-2.74-.13-.64-.6-.94-1.07-.94s-.94.25-1.07.64c-.47,2.69-.52,5.09-.56,7.49v.81c.21.34.73.64,1.11.64.47,0,.86-.3.9-.81.13-1.24,2.44-5.52,3.42-5.52.17,0,.26.38.26,1.2s-.09,1.58-.13,2.27c-.04.68-.08,1.41-.08,2.05s.3.81.77.81c.51,0,1.2-.47,1.41-.69.69-2.18,1.88-5.35,3.68-6.59,0,0,.04,0,.08-.04h.04v.56c0,.34-.04.85-.08,1.32-.04.56-.13,1.11-.13,1.58,0,1.58.47,3.04,2.65,3.04s4.51-1.89,6.17-3.77c.41-.47.79-.93,1.1-1.37,0-.04.04-.21.04-.25,0-.26-.19-.49-1-.54Z"/>
      <path class="cls-1" d="M115.42,34.3s-.03.04-.03.07c-1.49-.08-2.92-.34-4.29-.78.78-.91,1.67-1.61,2.65-1.61s1.67.9,1.67,2.31Z"/>
      <path class="cls-1" d="M138.56,34.69c-.3,0-.52.09-.64.26-2.18,1.71-5.09,2.57-8.17,3.21l.13-1.03c.17-1.58.34-3.08.34-4.62,0-.64-.52-.85-1.03-.85-.47,0-.9.21-1.07.51-.94,2.1-2.87,5.99-4.02,5.99-.21,0-.26-.94-.26-1.45,0-1.33.43-2.82.77-3.85-.03-.11-.07-.21-.13-.3-.69.35-1.4.65-2.13.9-.17.52-.29,1.11-.37,1.68-.11.71-.15,1.36-.15,1.74,0,.15,0,.29.01.42.06,1.32.44,2.05,1.02,2.36-2.4.64-4.53,1.37-6.37,2.44-5.13,3.3-7.79,9.37-7.79,14.04,0,3.42,1.58,7.31,5.52,7.31,1.67,0,3.89-.94,6.12-2.65,6.29-5.13,8.56-13.47,9.24-20.83,3.29-.68,6.84-1.62,9.62-3.72.26-.26.39-.52.39-.73,0-.47-.56-.82-1.03-.82ZM126.2,47.01c-1.24,4.83-3.55,9.5-7.15,12.54-2.01,1.5-3.59,2.27-4.83,2.27-2.65,0-3.38-3.38-3.38-5.48,0-4.24,2.31-9.97,6.76-12.92,2.57-1.5,6.07-2.27,9.84-3.08-.3,2.05-.6,4.41-1.24,6.67ZM127.61,38.62l-1.58.3c.64-.51,1.2-1.2,1.75-1.92-.13,1.03-.04.81-.17,1.62Z"/>
      <path class="cls-1" d="M124.49,32.55c-.69.35-1.4.65-2.13.9.26-.83.63-1.46,1.15-1.46.37,0,.77.21.99.56Z"/>
      <path class="cls-1" d="M163.69,34.91s-.1,0-.14,0c-.3,0-.51.08-.69.25-.9.9-4.79,3.81-6.59,3.81-.47,0-.73-.08-.73-1.75,0-.47.04-.98.04-1.37v-.47c0-1.97-.57-2.95-1.72-2.99l-.39,1.69h-2.29c-.59.65-1.18,1.45-1.72,2.33.06-.77.15-1.6.24-2.33h-2.48c-.33,2.62-.58,6.6-.58,8.78v.13c0,1.33,0,1.97,1.07,1.97.51,0,.94-.3,1.07-.81.34-3.42,3.76-8.94,4.75-9.15-.13.04-.08.25-.08.38v1.37c0,2.18.6,3.85,2.95,3.85,1.6,0,4.73-1.68,6.63-3.11.94-.71,1.58-1.37,1.58-1.72,0-.59-.36-.82-.92-.85Z"/>
      <path class="cls-1" d="M153.86,32.38l-.39,1.69h-2.29c.94-1.04,1.87-1.7,2.6-1.7.03,0,.05,0,.07,0Z"/>
      <path class="cls-1" d="M150.02,32.29c-.11.35-.22,1.01-.32,1.78h-2.48c.11-.92.23-1.68.36-2.12.17-.47.52-.68,1.03-.68.69,0,1.41.34,1.41,1.03Z"/>
      <path class="cls-1" d="M178,34.73c-.06,0-.12,0-.17.01-.21.03-.38.12-.55.29l-.04.04c-.64.85-3.34,3.55-5.09,3.55-.86,0-1.37-.81-1.37-1.84,0-.47.04-.98.17-1.45.12-.43.17-.83.17-1.25h-2.36l.05.14-.17-.13c-.21,1.24-1.28,4.32-2.61,4.32-.55,0-.77-.52-.77-1.07,0-1.13.73-2.68,1.74-3.27h-2.78c-.2.26-.37.54-.53.83-.42.8-.66,1.69-.66,2.56h0c0,2.01,1.2,2.95,2.74,2.95.98,0,2.27-.64,3.25-1.54.64,1.15,1.5,1.45,2.65,1.45,1.92,0,4.31-1.43,5.95-2.89.52-.46.96-.92,1.28-1.34.17-.21.17-.34.17-.47,0-.51-.52-.9-1.07-.9ZM168.6,34.07s.02.01.03.02v-.02h-.03Z"/>
      <path class="cls-1" d="M171.11,33.96s0,.07,0,.11h-2.36l-.08-.24c0,.12-.04.13-.04.24h-.03c-.29-.16-.57-.24-.78-.24-.29,0-.57.09-.83.24h-2.78c.89-1.2,2.2-2.04,3.61-2.04.68,0,1.28.17,1.84.56h.08c1.07,0,1.37.56,1.37,1.37Z"/>
      <path class="cls-1" d="M197.34,35.12c1.16,0,1.41.26,1.41.56,0,.04-.04.21-.04.26-1.58,2.18-4.58,5.14-7.27,5.14-2.18,0-2.65-1.46-2.65-3.04,0-.47.09-1.03.13-1.58.04-.47.09-.98.09-1.33v-.56s-.04,0-.04,0c-.04.04-.09.04-.09.04-1.8,1.24-2.99,4.41-3.68,6.59-.21.21-.9.68-1.41.68-.47,0-.77-.17-.77-.81s.04-1.37.09-2.05.13-1.46.13-2.27-.09-1.2-.26-1.2c-.98,0-3.29,4.28-3.42,5.52-.04.51-.43.81-.9.81-.38,0-.9-.3-1.11-.64v-.81c.04-2.4.09-4.79.56-7.49.13-.39.6-.64,1.07-.64s.94.3,1.07.94c-.21.81-.26,1.75-.38,2.74.9-1.33,2.1-2.65,3.46-2.65,1.24,0,1.8,1.24,1.97,2.61,1.03-1.75,2.48-3.93,4.24-3.93,1.03,0,1.67.9,1.67,2.31-.04.04-.04.13-.04.21,0,.13-.04.3-.04.43-.13.73-.38,2.1-.38,3.17,0,.86.21,1.33.9,1.33,1.67,0,4.06-2.31,5.43-4.15l.3-.17Z"/>
      <path class="cls-1" d="M199.9,36.31c.21,1.5,1.2,2.74,2.7,2.74,2.31,0,4.49-2.48,5.78-4.11.26-.26.51-.39.77-.39.56,0,1.07.47,1.07,1.16-1.97,2.44-4.62,4.96-7.61,4.96-3.04,0-4.79-2.48-4.79-5.05,0-2.4,1.67-4.79,4.19-4.79,1.75,0,2.52,1.07,2.52,2.14,0,2.35-2.82,3.34-4.62,3.34ZM199.86,35.12c0-.21,0-.34.04-.43h-.43s.38.43.38.43ZM199.9,34.69c1.2-.13,2.74-.77,2.74-1.8,0-.21-.17-.3-.56-.3-1.07,0-1.88,1.07-2.18,2.1Z"/>
    </g>
  </g>
</svg>