<?xml version="1.0" encoding="UTF-8"?>
<svg id="Calque_2" data-name="Calque 2" xmlns="http://www.w3.org/2000/svg" viewBox="0 0 58.03 36.39">
  <defs>
    <style>
      .cls-1 {
        fill: #fff;
      }
    </style>
  </defs>
  <g id="Calque_1-2" data-name="Calque 1">
    <path class="cls-1" d="M37.04,36.39c-1.33,0-1.33-.8-1.33-2.44v-.16c0-3.67.58-11.43,1.17-13.55.21-.58.64-.85,1.28-.85.85,0,1.75.43,1.75,1.28-.27.85-.53,3.14-.69,5.1,1.75-2.82,3.88-4.99,5.37-4.99s2.23,1.22,2.23,3.72v.58c0,.48-.05,1.12-.05,1.7,0,2.07.32,2.18.9,2.18,2.23,0,7.07-3.61,8.18-4.73.21-.21.48-.32.85-.32.8,0,1.33.27,1.33,1.06,0,1.33-7.23,6.01-10.2,6.01s-3.67-2.07-3.67-4.78v-1.7c0-.16-.05-.43.11-.48-1.22.27-5.47,7.12-5.9,11.37-.16.64-.69,1.01-1.33,1.01Z"/>
    <path class="cls-1" d="M9.99,25.05c0,.09-.02.18-.03.28.05-.07.1-.13.15-.2v-1.18c-.04.36-.08.72-.12,1.1ZM24.67,8.05V0H0v36.39h10.12v-4.27c-.42.94-.7,1.75-.74,2.22-.07.9-.75,1.52-1.68,1.52-.7,0-1.58-.51-1.97-1.13l-.04-.07v-1.34c.07-3.68.13-7.47.87-11.69v-.04c.24-.69,1.05-1.19,1.94-1.19.97,0,1.74.66,1.94,1.69v.06s.01,0,.01,0h3.41c.36-.11.72-.16,1.08-.16.34,0,.66.05.95.16h4.67c.09-.1.18-.2.28-.3v-7.39h-10.74v-6.4h14.56Z"/>
    <path class="cls-1" d="M36.77,25.06c1.8,0,2.2.4,2.2.86,0,.06-.07.33-.07.4-2.46,3.39-7.12,7.99-11.31,7.99-3.39,0-4.13-2.26-4.13-4.73,0-.73.13-1.6.2-2.46.07-.73.13-1.53.13-2.06v-.87s-.07,0-.07,0c-.07.07-.13.07-.13.07-2.79,1.93-4.66,6.85-5.72,10.24-.33.33-1.4,1.06-2.2,1.06-.73,0-1.2-.26-1.2-1.26s.07-2.13.13-3.19c.07-1.06.2-2.26.2-3.53s-.13-1.86-.4-1.86c-1.53,0-5.12,6.65-5.32,8.58-.07.8-.66,1.26-1.4,1.26-.6,0-1.4-.46-1.73-1v-1.26c.07-3.73.13-7.45.87-11.64.2-.6.93-1,1.66-1s1.46.47,1.66,1.46c-.33,1.26-.4,2.73-.6,4.26,1.4-2.06,3.26-4.13,5.39-4.13,1.93,0,2.79,1.93,3.06,4.06,1.6-2.73,3.86-6.12,6.59-6.12,1.6,0,2.59,1.4,2.59,3.59-.07.06-.07.2-.07.33,0,.2-.07.46-.07.66-.2,1.13-.6,3.26-.6,4.92,0,1.33.33,2.06,1.4,2.06,2.59,0,6.32-3.59,8.45-6.45l.47-.26Z"/>
  </g>
</svg>